<svg xmlns="http://www.w3.org/2000/svg" width="15" height="17" viewBox="0 0 15 17">
    <path d="M13.846 2.267h-.192c-2.038 0-3.365-.496-5.462-2.04C7.987.076 7.744 0 7.5 0c-.244 0-.487.076-.692.227-2.097 1.544-3.424 2.04-5.462 2.04h-.192C.517 2.267 0 2.774 0 3.4v5.1c0 2.519 1.253 4.787 3.623 6.558 1.714 1.282 3.424 1.858 3.496 1.882.12.04.245.06.37.06.124 0 .25-.02.369-.06.072-.023 1.787-.6 3.507-1.88C13.743 13.288 15 11.02 15 8.5V3.4c0-.626-.517-1.133-1.154-1.133zM1 8.5h6.5V1c2.364 1.73 3.94 2.308 6.303 2.308.109 0 .197.086.197.192v5H7.5v7.496L7.489 16S1 13.857 1 8.5z"/>
</svg>
