<?xml version="1.0" encoding="UTF-8"?>
<svg width="16px" height="16px" viewBox="0 0 16 16" version="1.1" xmlns="http://www.w3.org/2000/svg" xmlns:xlink="http://www.w3.org/1999/xlink">
    <title>Group 3</title>
    <g id="Page-1" stroke="none" stroke-width="1" fill="none" fill-rule="evenodd">
        <g id="leaderboard-24px">
            <rect id="Rectangle" x="0" y="0" width="16" height="16"></rect>
            <path d="M4.33333333,6.5 L4.5,13.3333333 L2,13.5 L1.83333333,6.66666667 L4.33333333,6.5 Z M9.16666667,2.5 C9.2125,2.5 9.25384822,2.51928833 9.28394661,2.54938672 C9.314045,2.57948512 9.33333333,2.62083333 9.33333333,2.66666667 L9.33333333,2.66666667 L9.33333333,13.3333333 C9.33333333,13.3791667 9.314045,13.4205149 9.28394661,13.4506133 C9.25384822,13.4807117 9.2125,13.5 9.16666667,13.5 L9.16666667,13.5 L6.83333333,13.5 C6.7875,13.5 6.74615178,13.4807117 6.71605339,13.4506133 C6.685955,13.4205149 6.66666667,13.3791667 6.66666667,13.3333333 L6.66666667,13.3333333 L6.66666667,2.66666667 C6.66666667,2.62083333 6.685955,2.57948512 6.71605339,2.54938672 L6.71605339,2.54938672 Z M14,7.83333333 C14.0458333,7.83333333 14.0871816,7.85262166 14.1172799,7.88272006 C14.1473783,7.91281845 14.1666667,7.95416667 14.1666667,8 L14.1666667,8 L14.1666667,13.3333333 C14.1666667,13.3791667 14.1473783,13.4205149 14.1172799,13.4506133 C14.0871816,13.4807117 14.0458333,13.5 14,13.5 L14,13.5 L11.6666667,13.5 C11.6208333,13.5 11.5794851,13.4807117 11.5493867,13.4506133 C11.5192883,13.4205149 11.5,13.3791667 11.5,13.3333333 L11.5,13.3333333 L11.5,8 C11.5,7.95416667 11.5192883,7.91281845 11.5493867,7.88272006 L11.5493867,7.88272006 Z" id="Shape" stroke="#FFFFFF" fill-rule="nonzero"></path>
        </g>
    </g>
</svg>