<svg id="Layer_1" data-name="Layer 1" xmlns="http://www.w3.org/2000/svg" viewBox="0 0 55.36 79.12"><defs><style>.cls-1{fill:#2b2d2d;}.cls-1,.cls-2,.cls-3,.cls-4,.cls-5{fill-rule:evenodd;}.cls-2{fill:#2b2d30;}.cls-3{fill:#2d2d30;}.cls-4{fill:#2a2e2f;}.cls-5{fill:#2d2e2f;}.cls-6{fill:none;stroke:#2d2d30;stroke-miterlimit:10;}</style></defs><title>coalindia</title><g id="surface1"><path class="cls-1" d="M28.53,65.2c.29-.21,7.72-12,8.06-12.58L39,48.78c.37-.6,2.3-3.5,2.41-3.89l-8.54-6a4.16,4.16,0,0,0-1.29-.79l-3,6.36c-.22.62-.08,19.92-.08,20.79" transform="translate(-0.85 -0.22)"/><path class="cls-2" d="M15.5,44.89a15,15,0,0,0,1.41,2.56L18.45,50c.26.45.48.77.76,1.23l2.32,3.86,3,5L27.49,65c.2.27,0,0,.15.18V44.68c-.1-.68-2.82-5.74-3-6.42a14.52,14.52,0,0,0-2.26,1.6c-.62.46-6.49,4.92-6.9,5" transform="translate(-0.85 -0.22)"/><path class="cls-2" d="M45.09,19.82c-.6-.13-2-.21-2-1.54,0-.42.08-.21.11-.66a2,2,0,0,0,2.31.09,1.34,1.34,0,0,0,.56-1h.22c.12.42.43.52.89,1.21a10.18,10.18,0,0,1-1.06.93Zm-9.94-7.5c-1.54,0,0-2.37.22-3.31a10.29,10.29,0,0,0,1.33.44C36.58,10,35.73,12.32,35.15,12.32Zm-3.2-6v.55c-.58,0-2.31-.33-3.64-.33s-3,.31-3.65.33v1c1.14,0,2-.22,3.32-.22a2.37,2.37,0,0,1,.11.77,5.67,5.67,0,0,0-1.91.19c-1.9.79.32,2.79.92,2.79s1.06-.28,1.65-.33c.37.7,0,1.22-.71,1.52-.45.17-.52.08-.86-.17-1.76-1.25-2.36.66-1,1.24a2,2,0,0,0,.61.15c1.1.16.3.14,1.61.94a2.35,2.35,0,0,0,1.14.52,2.38,2.38,0,0,1,.43-.89l-1.32-1c1.46-.34,2-2.66.54-3.31-.81-.34-2.49,1-2.53-.66,1,0,1.61-.11,2.66-.11,0-.65-.12-.92-.12-1.66l1.3.14c.33,0,1,.18,1.35.19l-.93,4.37a11,11,0,0,0-.29,1.48,2.74,2.74,0,0,1,1.11.22L33,8.23a6.21,6.21,0,0,0,1.32.34A6.9,6.9,0,0,1,33.75,10a4.36,4.36,0,0,0-.47,1.52,1.85,1.85,0,0,0,3.6.61A17.35,17.35,0,0,0,37.7,10a19.35,19.35,0,0,1,4.63,3c-.11.41-.11.23-.33.56-.21-.15-.26-.21-.51-.38-.58-.4-1.84-1.52-2.37-.62a3.26,3.26,0,0,0,.22,2.65c.43.61,1,.21,1.44.88-.34,1.29-2.76.82-2.76-2.43,0-.55.1-.49.11-1-1.26-.3-1.1-.5-1.1,1.43,0,2.11,1.67,4.24,3.7,3.6a1.48,1.48,0,0,0,.1-2.86c-.41-.12-.51-.06-.73-.38a1.69,1.69,0,0,1-.2-1c.6,0,.37.05,1.3.69.44.29.81.57,1.24.86a6.28,6.28,0,0,1,.88-1.21c.32.2,2,1.74,2,2.09a1,1,0,0,1-1,1.06c-.68,0-.84-.45-1.11-.95-1.81,1.22-1.27,4.48.67,4.64-.11.4-.19.36-.51.6a2.31,2.31,0,0,0-.6.61c.25.37.44.35.55.77.66-.15,1.78-1.35,2.3-1.78l1.7-1.39a2,2,0,0,1,.64-.47c.4.59.88,1.25,1.22,1.88L45.39,23a7.74,7.74,0,0,1-1.29.69,5.65,5.65,0,0,0,.55,1.1c.4-.27.78-.47,1.25-.73s.84-.51,1.33-.77.78-.48,1.25-.74l1.36-.74a2.84,2.84,0,0,0,.33.77,4.82,4.82,0,0,0,.88-.44,6.71,6.71,0,0,0-.73-1.47,38,38,0,0,0-3.21-4.53,28.57,28.57,0,0,0-2.65-2.85l-1.2-1a24.41,24.41,0,0,0-9.42-4.93c-.48-.13-.54,0-.69-.42-.27-.76,1.1-2,3-.09a8.62,8.62,0,0,1,.76.67c.27.33.37.62.82.73.08-.34.13-.32.22-.66C37,6.13,35.16,4.38,33.23,5,32.68,5.16,32,5.7,32,6.36" transform="translate(-0.85 -0.22)"/><path class="cls-3" d="M21.57,29.88H34.82A10.88,10.88,0,0,0,34,28L32.35,24.4a8.18,8.18,0,0,0-.44-.89c-.19-.38-.26-.61-.44-1L29.78,18.9c-.32-.62-.52-1.17-.85-1.8l-.84-1.91-.27.4c-.08.17-.13.27-.2.45-.79,1.84-5.35,12.52-6.05,13.84" transform="translate(-0.85 -0.22)"/><path class="cls-2" d="M11.42,14C9.79,14,8.6,13.76,7,13.76a6.2,6.2,0,0,1-.11,1c5.65,0,3.64-.75.51,4.37-.51.82-.94,1.52-1.39,2.36.39.2.49.4,1,.44a6.54,6.54,0,0,1,.74-1.47,7.61,7.61,0,0,0,.8-1.4l2.26,1.39a1,1,0,0,1-.38,1.81,1,1,0,0,1-1-1c0-.5.23-.57.44-.88l-.63-.69c-2.1,1.42-.41,3.78,1.07,3.78a2,2,0,0,0,2-2,8.38,8.38,0,0,0,1.55.88c.11-.43.32-.44.43-.88A15.7,15.7,0,0,0,12,19.83c-1.61-1,.67-3.67,1.54.11a2.77,2.77,0,0,0,1.11-.22c0-2.21-2.45-4-3.78-2.34a1.54,1.54,0,0,0-.42,1.34,4.53,4.53,0,0,1-1.1-.66,18.86,18.86,0,0,1,3.09-3.53,4.32,4.32,0,0,1,1,1.05l3.26,3.36a1.39,1.39,0,0,1,.77-.66c-.13-.51-.66-.83-1-1.19a5.83,5.83,0,0,1-.55-.56c-.59-.75-2.25-2.33-2.63-2.89.22-.33.32-.33.63-.58l.66-.56c.87-.69,3.66-2.64,4.57-2.72a3.55,3.55,0,0,0,.44,1c-.29.42-.65.63-.66,1.33a2.18,2.18,0,0,0-3,2.1,2.59,2.59,0,0,0,2.76,2.32c1.41,0,1.22.18,1.22-1.11-.27,0-1.89.41-2.63-.68A1.18,1.18,0,0,1,17.93,13c.42,0,.21.07.66.11,0,1.11.29,1,.88,1,.8,0-.36-.67.67-2.21A17.28,17.28,0,0,1,22,15.08a5.73,5.73,0,0,0,1.11-.55c-.43-.81-2.87-4.89-3-5.3A6.17,6.17,0,0,0,21,8.89c-.18-.34-.35-.57-.55-.88-.41.2-.9.36-1.32.56s-.81.4-1.26.62l-4.5,3c-.23.18-2,1.79-2,1.79" transform="translate(-0.85 -0.22)"/><path class="cls-2" d="M32.06,37.27c1.57,1,3,2.16,4.6,3.24l4.68,3.28-3-6.51c-.22-.53-.52-1-.74-1.57l-1.5-3.25a7.46,7.46,0,0,1-.73-1.71c-.5.15-.53.74-.92,1.51l-2.39,5" transform="translate(-0.85 -0.22)"/><path class="cls-4" d="M15.5,43.89c.34-.08,6-4.35,6.51-4.75l2.21-1.65-2.61-5.56a3.91,3.91,0,0,1-.37-.84L15.5,43.89" transform="translate(-0.85 -0.22)"/><path class="cls-1" d="M25.33,37.6a38.84,38.84,0,0,0,2.06,4.57,4.18,4.18,0,0,0,.81,1.39l2.87-6.07a20.34,20.34,0,0,1-2.76-2c-.35.24-2.68,2-3,2.1" transform="translate(-0.85 -0.22)"/><path class="cls-2" d="M6.89,59a4,4,0,0,0,1.18,2.57c1.08,1,2,.63,2.79.63a6.49,6.49,0,0,1-.22-1.54c-1.2,0-2.32.18-2.32-1.77,0-1.12,2.65-2.78,4-1.93a2,2,0,0,1,.84,1.38,1.89,1.89,0,0,1-.56,1.21c.16.58.63.69.78,1.22,1.29-.35,1.74-2.92.25-4.45-1.64-1.68-3.7-1.22-5.45,0A3.36,3.36,0,0,0,6.89,59" transform="translate(-0.85 -0.22)"/><path class="cls-3" d="M40.12,66.09a2.51,2.51,0,0,1,1.88,2c0,1.26-1.88,1.48-2.78-.32A1.08,1.08,0,0,1,40.12,66.09Zm-1.87-2.76c.39.59,1.27,1.3,1.65,1.87-2.38.06-3.43,3-.51,4.93a2.12,2.12,0,0,0,3.38-1.83l.54.46c.25-.34.6-.46.9-.91L41.8,65.07c-.2-.24-.38-.37-.6-.61s-.33-.43-.61-.72l-1.24-1.4-1.1,1" transform="translate(-0.85 -0.22)"/><path class="cls-5" d="M28.2,34.51a12.21,12.21,0,0,0,1.31-.9c.46-.35.89-.64,1.34-1s2.45-1.72,2.65-2H22.9c.32.48,4.89,3.58,5.3,3.86" transform="translate(-0.85 -0.22)"/><path class="cls-2" d="M46.42,58.58c1.07.51,1.21.28,1.21,1.33a.68.68,0,0,1-.77.77C46.05,60.68,46.42,59.34,46.42,58.58ZM44.1,61.12,44.76,60A1.09,1.09,0,0,1,45,58.14a3.56,3.56,0,0,0,.55.11c0,1.4-.76,3,.59,3.72s2.51-.46,2.51-1.84a3.34,3.34,0,0,0-.22-1c.6,0,.52.11.71-.39.11-.29.21-.67.28-.93a5.16,5.16,0,0,1-2.26-.51c-1.42-.55-2.58-1.09-3.38.17s-1,2.73.34,3.65" transform="translate(-0.85 -0.22)"/><path class="cls-3" d="M17.16,69.29c1.22-.29.79.2,1.87.22C18.9,71.18,16.44,70.8,17.16,69.29Zm0-2.54.82.83.06,0c.58-.15,0-.22.77-.22.44,0,1,.42,1,.77a1.59,1.59,0,0,1-.12.56c-1-.09-1.68-.66-2.75-.66-1.72,0-2.47,3.42,1.21,3.42,0,.52,0,.48.4.7a2.31,2.31,0,0,0,.82.4,6.41,6.41,0,0,1,1-2.3c.33-.55,1.06-1.59.88-2.25-.37-1.38-3.09-2.68-4.1-1.3" transform="translate(-0.85 -0.22)"/><path class="cls-1" d="M13.41,66.53c-2.31,0-1.24-3,.55-3a1.31,1.31,0,0,1,.52,2.4A2.38,2.38,0,0,1,13.41,66.53Zm-.12,1.32A2.48,2.48,0,0,0,15.53,67a2.78,2.78,0,0,0-1.68-4.78A3,3,0,0,0,10.7,65a2.89,2.89,0,0,0,2.59,2.87" transform="translate(-0.85 -0.22)"/><path class="cls-1" d="M33.39,69.4c-.13-.18,0,.17-.15-.29a.7.7,0,0,1-.07-.37,4.62,4.62,0,0,0-1.33.44,22.2,22.2,0,0,0,.9,2.52c.14.4.29.8.44,1.22a8,8,0,0,1,.43,1.34A7.75,7.75,0,0,1,35,73.81a5,5,0,0,0-.28-.82,8.42,8.42,0,0,1-.82-3c0-.36.61-.77,1-.77.93,0,1.43,2.68,2,3.86.53-.12.8-.32,1.33-.44a23.13,23.13,0,0,0-.93-2.72c-.3-.84-.66-2-1.73-2a2.08,2.08,0,0,0-2.2,1.55" transform="translate(-0.85 -0.22)"/><path class="cls-1" d="M29.08,67.3a13.39,13.39,0,0,0,.1,1.78l.13,1.86c0,1.28.22,2.48.22,3.76l1.54-.12c0-2.5-.45-4.87-.45-7.39l-1.54.11" transform="translate(-0.85 -0.22)"/><path class="cls-1" d="M21.57,73.49a9.87,9.87,0,0,0,1.33.44,16.64,16.64,0,0,0,.59-1.73c.21-.63.34-1.12.55-1.76l1.18-3.58-1.43-.46c-.32,1.33-2.16,6.32-2.22,7.09" transform="translate(-0.85 -0.22)"/><path class="cls-1" d="M24.89,36.94a16.24,16.24,0,0,0,2.65-2,1.71,1.71,0,0,1-.7-.41l-4.61-3.23a10.35,10.35,0,0,0,.62,1.37l2,4.26" transform="translate(-0.85 -0.22)"/><path class="cls-1" d="M29,35.06a12.37,12.37,0,0,0,2.54,1.66l2.54-5.3A51.47,51.47,0,0,0,29,35.06" transform="translate(-0.85 -0.22)"/><path class="cls-1" d="M41.89,63l4.3,3.32c.35-.67.63-.68.77-1.21-.34-.24-.66-.53-1-.78l-3.2-2.43a8.16,8.16,0,0,0-.88,1.1" transform="translate(-0.85 -0.22)"/><path class="cls-2" d="M40.34,61.89c.49.13.62.53,1.11.66.11-.41.37-.51.77-1.1a6.43,6.43,0,0,0-1.1-.88,2.85,2.85,0,0,1-.4.6c-.26.33-.34.3-.38.72" transform="translate(-0.85 -0.22)"/></g><rect class="cls-6" x="0.5" y="0.5" width="54.36" height="78.12" rx="25.92"/></svg>