<svg xmlns="http://www.w3.org/2000/svg" width="50" height="50" viewBox="0 0 50 50">
    <g fill="none" fill-rule="evenodd">
        <g>
            <g>
                <path d="M0 0H50V50H0z" transform="translate(-17 -14) translate(17 14)"/>
                <path fill="#E30E13" fill-rule="nonzero" d="M35.298 9.445c-.035-.053-.088-.07-.141-.07H28.93c-.07 0-.141.052-.159.122l-1.34 3.76c-.018.053-.018.105.017.158.035.052.088.07.141.07h6.298c.07 0 .14-.053.158-.123l1.27-3.76c.018-.052 0-.105-.017-.157z" transform="translate(-17 -14) translate(17 14)"/>
                <g fill="#535353" fill-rule="nonzero">
                    <path d="M3.634 21.868h.088c.018 0 .053 0 .07.017.018 0 .036.018.054.018.017 0 .035.017.052.052.018.018.053.07.106.14.036.07.089.158.124.262.035.105.07.21.106.35.035.14.035.28.035.437 0 .263-.053.508-.141.735-.088.227-.23.402-.406.56-.176.157-.388.262-.653.35-.264.087-.564.122-.9.122-.352 0-.652-.053-.917-.14-.264-.088-.493-.21-.688-.367-.194-.158-.335-.35-.423-.578C.035 23.6 0 23.354 0 23.092c0-.122.018-.227.035-.35.018-.122.053-.21.088-.315.036-.105.071-.174.124-.262.053-.07.088-.122.106-.157.017-.035.053-.053.07-.053.018 0 .036-.017.053-.017.018 0 .053-.018.07-.018H.76c.017 0 .052.018.07.018.018 0 .035.017.053.035.018.017.018.035.018.035 0 .035-.018.07-.07.122-.036.053-.09.123-.142.21-.053.087-.088.192-.141.315-.035.122-.07.262-.07.437 0 .192.035.35.105.507.07.157.177.28.335.385.141.105.318.192.53.245.211.052.44.087.705.087.265 0 .494-.035.706-.087.211-.053.37-.14.511-.245.141-.105.247-.228.318-.385.07-.157.106-.332.106-.525 0-.157-.018-.314-.053-.437-.036-.122-.089-.227-.141-.315-.053-.087-.089-.157-.142-.21-.035-.052-.052-.104-.052-.14 0-.017 0-.034.017-.034 0-.018.018-.018.035-.018.018 0 .036-.017.071-.017.018-.035.07-.035.106-.035zM2.1 17.723c.334 0 .634.035.916.123.265.087.494.192.688.35.194.157.336.35.441.594.106.245.16.507.16.822 0 .315-.054.577-.142.804-.088.228-.23.42-.406.56-.176.14-.405.262-.67.332s-.564.105-.917.105c-.335 0-.635-.035-.9-.122-.265-.088-.494-.193-.688-.35-.194-.157-.335-.35-.44-.595C.051 20.12 0 19.84 0 19.524c0-.297.053-.577.141-.787.088-.21.23-.42.406-.56.176-.157.388-.261.653-.331.264-.07.564-.123.9-.123zm.034.577c-.229 0-.458.018-.652.07-.212.035-.37.105-.53.21-.14.105-.264.227-.352.385-.088.157-.124.367-.124.594 0 .245.053.438.141.595.089.157.212.297.353.402.159.105.318.175.53.21.211.035.405.07.634.07.247 0 .477-.017.67-.052.212-.035.389-.105.53-.21.141-.088.265-.228.353-.385.088-.157.123-.367.123-.612s-.053-.437-.14-.612c-.09-.158-.213-.297-.371-.402-.16-.105-.335-.175-.53-.21-.194-.018-.405-.053-.635-.053zM4.004 13.736c.036 0 .089 0 .106.017.035.018.053.035.07.053.018.017.036.052.036.07 0 .035.018.052.018.087v.175c0 .053 0 .105-.018.158-.018.035-.035.087-.07.122l-.124.122c-.053.035-.124.088-.212.123l-2.364 1.259c-.123.07-.246.14-.388.192-.14.07-.264.123-.388.193.16 0 .318 0 .477-.018H4.145c.018 0 .036 0 .036.018.017.017.017.017.035.052.018.035.018.053.018.088v.28c0 .034-.018.07-.018.087 0 .017-.018.035-.035.052-.018.018-.036.018-.036.018H.3c-.088 0-.141-.018-.177-.07-.035-.053-.052-.105-.052-.158v-.262c0-.07 0-.122.017-.157.018-.035.035-.088.053-.123.018-.035.053-.07.106-.105l.159-.105 1.834-.961c.106-.053.23-.123.335-.175l.318-.158c.106-.052.212-.105.3-.157.106-.053.194-.105.3-.157H.159c-.018 0-.036 0-.036-.018-.017-.017-.017-.017-.035-.052-.017-.018-.017-.053-.017-.088v-.14-.122c0-.035.017-.07.017-.088.018-.017.018-.035.035-.052.018-.018.036-.018.036-.018h3.845v.018zM3.634 9.871h.088c.018 0 .053 0 .07.018.018.017.036.017.054.017.017 0 .035.018.052.053.018.017.053.07.106.14.036.07.089.157.124.262.035.105.07.21.106.35.035.14.035.28.035.437 0 .262-.053.507-.141.734-.088.21-.23.402-.406.56-.176.157-.388.262-.653.35-.264.087-.564.122-.9.122-.352 0-.652-.052-.917-.14-.264-.087-.493-.21-.688-.367-.194-.158-.335-.35-.423-.577-.088-.228-.141-.472-.141-.735 0-.122.018-.227.035-.35.018-.122.053-.21.088-.314.036-.088.071-.175.124-.263.053-.07.088-.122.106-.157.017-.035.053-.052.07-.052.018 0 .036-.018.053-.018.018 0 .053-.017.07-.017H.76c.017 0 .052.017.07.017.018 0 .035.018.053.035.018.018.018.018.018.035 0 .035-.018.07-.07.122-.036.053-.09.123-.142.21-.053.088-.088.193-.141.315-.035.122-.07.262-.07.437 0 .193.035.35.105.507.07.158.177.28.335.385.159.105.318.193.53.245.211.052.44.087.705.087.265 0 .494-.035.706-.087.211-.052.37-.14.511-.245.141-.105.247-.245.318-.385.07-.157.106-.332.106-.524 0-.158-.018-.315-.053-.437-.036-.123-.089-.228-.141-.315-.053-.088-.089-.158-.142-.21-.035-.053-.052-.105-.052-.14 0-.017 0-.035.017-.035 0-.017.018-.017.035-.017.018 0 .036-.018.071-.018.018-.035.07-.035.106-.035zM4.004 6.846h.106c.035 0 .053.017.07.017.018 0 .036.018.036.035 0 .018.018.035.018.053v1.976c0 .052-.018.087-.053.14-.036.035-.088.07-.177.07H.282c-.088 0-.14-.018-.176-.07-.035-.035-.053-.088-.053-.14V6.986c0-.018 0-.035.018-.053l.035-.035c.017 0 .035-.017.07-.017h.212c.035 0 .07.017.088.017.018 0 .036.018.036.035 0 .018.017.035.017.053v1.608h1.306V7.213c0-.018 0-.035.017-.053l.035-.034c.018-.018.036-.018.071-.018h.212c.035 0 .053.018.07.018.018.017.036.017.036.034 0 .018.017.035.017.053v1.381h1.5V6.951c0-.018 0-.035.017-.053l.036-.035c.017-.017.035-.017.07-.017h.088zM1.288 3.418c.211 0 .388.035.564.105.159.07.318.157.424.297.123.123.211.28.282.472.07.193.088.403.088.665v.472h1.5c.017 0 .035 0 .052.018.018.017.018.017.036.052 0 .018.017.053.017.088v.28c0 .034-.017.07-.017.087 0 .017-.018.035-.036.052-.017 0-.035.018-.053.018H.3c-.088 0-.141-.018-.177-.07C.088 5.9.071 5.866.071 5.796v-.891c0-.088 0-.175.017-.263.018-.087.018-.175.053-.297s.07-.227.141-.35c.07-.122.159-.21.247-.297.088-.088.212-.14.335-.192.124-.07.265-.088.424-.088zm.035.577c-.176 0-.318.035-.423.088-.106.07-.194.14-.247.227-.053.087-.089.192-.106.28-.018.087-.035.21-.035.315v.507h1.675v-.49c0-.157-.017-.297-.07-.42-.035-.105-.106-.21-.177-.28-.07-.07-.158-.122-.282-.174-.123-.053-.212-.053-.335-.053zM.3.008h.106c.035 0 .053.017.07.017.018 0 .036.018.036.035.017.035.017.053.017.07v1.155h3.616c.018 0 .036 0 .053.017.018 0 .018.018.036.053.017.034.017.052.017.087v.262c0 .035-.017.07-.017.088 0 .017-.018.035-.036.052-.017 0-.035.018-.053.018H.53v1.154c0 .017 0 .035-.017.052 0 .018-.018.018-.036.035-.017.018-.035.018-.07.018H.194c-.035 0-.053-.018-.07-.018-.018 0-.036-.052-.053-.052 0-.018-.018-.035-.018-.053V.13c0-.017 0-.035.018-.052C.07.06.088.06.106.043.123.025.159.025.176.025.194.025.265.008.3.008z" transform="translate(-17 -14) translate(17 14) translate(0 16.467)"/>
                </g>
                <path fill="#706F70" fill-rule="nonzero" d="M5.433 41.325V16.493h9.402c1.923 0 3.458.244 4.604.752 1.165.507 2.064 1.276 2.717 2.325.653 1.05.988 2.134.988 3.27 0 1.067-.282 2.064-.865 3.009-.582.944-1.464 1.696-2.628 2.273 1.517.437 2.681 1.19 3.493 2.256.811 1.067 1.217 2.308 1.217 3.76 0 1.172-.247 2.238-.74 3.253-.495.996-1.112 1.766-1.835 2.308-.724.542-1.641.944-2.752 1.224-1.094.28-2.452.42-4.04.42h-9.56v-.018zm3.316-14.41h5.416c1.464 0 2.523-.087 3.158-.28.846-.244 1.481-.664 1.905-1.241.423-.577.635-1.294.635-2.169 0-.822-.194-1.556-.6-2.186-.406-.63-.97-1.049-1.711-1.294-.741-.227-2.011-.35-3.81-.35H8.749v7.52zm0 11.472h6.245c1.076 0 1.817-.035 2.258-.122.759-.14 1.394-.367 1.923-.682.511-.315.935-.77 1.27-1.382.335-.612.494-1.294.494-2.098 0-.927-.247-1.731-.723-2.413-.477-.683-1.147-1.172-1.994-1.434-.847-.28-2.064-.42-3.669-.42H8.75v8.551z" transform="translate(-17 -14) translate(17 14)"/>
                <path fill="#E30E13" fill-rule="nonzero" d="M29.335 37.53c0-.262.018-.594.071-.996.053-.403.159-1.015.353-1.837l4.022-18.222h-2.84l-7.32.28-.371 1.626c.987.105 1.623.28 1.94.56.3.28.459.734.459 1.381 0 .385-.036.84-.124 1.4-.088.559-.23 1.329-.44 2.308L21.98 37.775s-.071.333-.089.805c-.017.77.089 1.346.247 1.766.16.385.424.734.812.962h8.626l.282-1.627c-.917-.104-1.57-.297-1.94-.612-.406-.314-.583-.822-.583-1.539z" transform="translate(-17 -14) translate(17 14)"/>
                <path fill="#706F70" fill-rule="nonzero" d="M46.711 16.475h3.263v14.113c0 2.448-.282 4.407-.846 5.84-.565 1.452-1.57 2.624-3.034 3.516-1.465.91-3.387 1.364-5.751 1.364-2.311 0-4.198-.402-5.663-1.19-1.464-.786-2.522-1.923-3.14-3.427-.635-1.486-.934-3.533-.934-6.12V16.474h3.263V30.57c0 2.116.194 3.69.6 4.687.405.997 1.076 1.784 2.046 2.326.97.542 2.152.822 3.546.822 2.399 0 4.11-.542 5.133-1.609 1.023-1.084 1.535-3.148 1.535-6.208V16.475h-.018z" transform="translate(-17 -14) translate(17 14)"/>
            </g>
        </g>
    </g>
</svg>
