<svg xmlns="http://www.w3.org/2000/svg" width="20" height="20" viewBox="0 0 20 20">
    <g fill="none" fill-rule="evenodd">
        <g>
            <g>
                <g>
                    <path d="M0 0L20 0 20 20 0 20z" transform="translate(-31 -203) translate(20 192) translate(11 11)"/>
                    <path fill="#FFF" fill-rule="nonzero" d="M3.611 11.111h5c.458 0 .833-.375.833-.833V3.61c0-.458-.375-.833-.833-.833h-5c-.458 0-.833.375-.833.833v6.667c0 .458.375.833.833.833zm0 6.667h5c.458 0 .833-.375.833-.834v-3.333c0-.458-.375-.833-.833-.833h-5c-.458 0-.833.375-.833.833v3.333c0 .459.375.834.833.834zm8.333 0h5c.459 0 .834-.375.834-.834v-6.666c0-.459-.375-.834-.834-.834h-5c-.458 0-.833.375-.833.834v6.666c0 .459.375.834.833.834zM11.111 3.61v3.333c0 .459.375.834.833.834h5c.459 0 .834-.375.834-.834V3.611c0-.458-.375-.833-.834-.833h-5c-.458 0-.833.375-.833.833z" transform="translate(-31 -203) translate(20 192) translate(11 11)"/>
                </g>
            </g>
        </g>
    </g>
</svg>
