<svg xmlns="http://www.w3.org/2000/svg" xmlns:xlink="http://www.w3.org/1999/xlink" width="17" height="18" viewBox="0 0 17 18">
    <defs>
        <path id="vszadcbxma" d="M10.16.6c1.292 0 2.34 1.026 2.34 2.29v.764h3.12c.395 0 .721.288.773.66l.007.104c0 .422-.35.764-.78.764l-.78-.001v9.928c0 1.213-.962 2.205-2.18 2.286l-.16.005H4.7c-1.292 0-2.34-1.026-2.34-2.29V5.18h-.78c-.395 0-.721-.286-.773-.66L.8 4.419c0-.422.35-.763.78-.763l3.119-.001.001-.763c0-1.213.962-2.205 2.18-2.286L7.04.6zm3.12 4.581H3.92v9.928c0 .387.293.706.674.757l.106.007h7.8c.43 0 .78-.342.78-.764V5.181zM7.04 7.473c.43 0 .78.342.78.763v4.582c0 .422-.35.764-.78.764-.43 0-.78-.342-.78-.764V8.236c0-.421.35-.763.78-.763zm3.12 0c.43 0 .78.342.78.763v4.582c0 .422-.35.764-.78.764-.43 0-.78-.342-.78-.764V8.236c0-.421.35-.763.78-.763zm0-5.346H7.04c-.43 0-.78.342-.78.764l-.001.763h4.681v-.763c0-.387-.293-.706-.674-.757l-.106-.007z"/>
    </defs>
    <g fill="none" fill-rule="evenodd">
        <use fill="#AAA" fill-rule="nonzero" xlink:href="#vszadcbxma"/>
    </g>
</svg>
