<svg xmlns="http://www.w3.org/2000/svg" width="20" height="20" viewBox="0 0 20 20">
    <path fill="#AAA" fill-rule="evenodd" d="M18.889 13.333c.586 0 1.066.454 1.108 1.029l.003.082v2.223c0 1.799-1.425 3.265-3.208 3.33l-.125.003H3.333c-1.799 0-3.265-1.425-3.33-3.208L0 16.667v-2.223c0-.613.497-1.11 1.111-1.11.586 0 1.066.453 1.108 1.028l.003.082v2.223c0 .585.453 1.065 1.028 1.108l.083.003h13.334c.585 0 1.065-.453 1.108-1.028l.003-.083v-2.223c0-.613.497-1.11 1.11-1.11zM10.7 14.76l-.071.051-.066.04-.085.045-.081.033-.085.028-.034.009-.077.016-.089.012L10 15l-.054-.001-.075-.006-.111-.018-.086-.022-.078-.026-.086-.036-.075-.04-.092-.058-.058-.044-.07-.063L3.658 9.33c-.434-.418-.434-1.097 0-1.515.41-.397 1.064-.417 1.5-.063l.071.063 3.659 3.528V1.072C8.889.48 9.386 0 10 0c.586 0 1.066.437 1.108.991l.003.08v10.27l3.659-3.527c.411-.397 1.064-.417 1.5-.063l.071.063c.411.396.433 1.026.065 1.447l-.065.068-5.555 5.357-.033.03-.01.008.043-.038-.066.059-.02.015z"/>
</svg>
