<svg xmlns="http://www.w3.org/2000/svg" width="371" height="346" viewBox="0 0 371 346">
    <g fill="none" fill-rule="evenodd">
        <g fill-rule="nonzero">
            <g>
                <path fill="#FFF" d="M342.22 341L5 341 28.78 4 366 4z" opacity=".661" transform="translate(-271 -237) translate(271 237)"/>
                <path fill="#C8C8C8" d="M81.406 341L33 341 153.594 4 202 4z" opacity=".2" transform="translate(-271 -237) translate(271 237)"/>
                <path fill="#C9C9C9" d="M199.069 341L92 341 212.931 4 320 4z" opacity=".2" transform="translate(-271 -237) translate(271 237)"/>
                <path fill="#407BFF" d="M30.848 63L21 62.294 25.352 0 87 0 87 9.986 34.549 9.986zM63 346L0 346 4.446 283 14.398 283.707 10.706 336.011 63 336.011zM366.554 63L356.618 62.294 360.294 9.986 308 9.986 308 0 371 0zM345.648 346L284 346 284 336.011 336.451 336.011 340.152 283 350 283.707z" transform="translate(-271 -237) translate(271 237)"/>
                <g fill="#407BFF" transform="translate(-271 -237) translate(271 237) translate(87 64)">
                    <path d="M91.68 228.724c-.293-.006-.581-.077-.844-.207-.095 0-2.435-1.34-6.366-3.764-1.592-1.004-3.597-2.232-5.777-3.62-6.924-4.513-13.593-9.265-19.847-14.13-1.592-1.18-3.024-2.391-4.568-3.635-5.762-4.785-11.141-9.473-15.82-14.13-1.21-1.212-2.404-2.424-3.597-3.668-4.346-4.483-8.428-9.217-12.224-14.177-.923-1.196-1.814-2.424-2.69-3.668-3.236-4.52-6.126-9.281-8.642-14.241-.605-1.196-1.21-2.456-1.766-3.716-2.09-4.612-3.721-9.42-4.87-14.353-.287-1.132-.542-2.36-.765-3.731-.175-.893-.318-1.834-.43-2.76-.493-3.651-.906-7.367-1.304-11.386-.128-1.196-.24-2.408-.35-3.604-.414-4.784-.764-9.457-1.02-14.113v-.383c0-1.053-.126-2.105-.174-3.19C.403 91.655.244 86.92.148 82.167v-3.62-14.082c0-1.212 0-2.424.08-3.62.111-5.2.286-9.935.493-14.082v-.27c0-1.15.096-2.265.16-3.366.286-5.135.62-9.999.97-14.082.112-1.387.207-2.567.319-3.62.366-4.018.636-6.267.636-6.267.068-.851.742-1.527 1.592-1.595.286 0 29.65-2.28 60.925-7.798 6.367-1.116 12.51-2.328 18.335-3.588C92.237 4.295 100.083 2.254 107.007.1c.346-.111.72-.111 1.066 0 6.605 2.169 14.165 4.21 22.473 6.076 5.65 1.276 11.634 2.472 17.826 3.588 30.494 5.518 59.54 7.782 59.827 7.798.92.076 1.62.861 1.592 1.786 0 0 0 2.233-.24 6.268 0 1.068-.11 2.28-.19 3.62-.239 4.098-.59 8.962-1.019 14.081-.095 1.021-.19 2.042-.286 3.11v.527c-.366 4.162-.876 8.898-1.48 14.065-.144 1.228-.287 2.424-.446 3.636-.541 4.338-1.194 9.074-1.958 14.066l-.54 3.604c-.765 4.784-1.592 9.569-2.452 14.098-.19 1.02-.398 2.057-.605 3.094l-.111.542c-.907 4.625-1.91 9.377-2.992 14.081l-.86 3.636c-.97 4.02-1.91 7.735-2.896 11.371-.271.94-.542 1.866-.828 2.79-.43 1.356-.844 2.568-1.29 3.717-1.866 4.977-4.166 9.78-6.875 14.352-.716 1.228-1.48 2.472-2.276 3.684-3.222 4.966-6.768 9.713-10.616 14.21-1.05 1.227-2.1 2.455-3.183 3.651-4.48 4.957-9.208 9.684-14.165 14.162-1.368 1.233-2.737 2.445-4.106 3.636-5.395 4.657-11.364 9.393-17.778 14.113-1.719 1.244-3.406 2.456-5.077 3.636-6.94 4.864-14.324 9.569-21.805 14.114-2.387 1.387-4.504 2.615-6.366 3.62-4.265 2.408-6.78 3.7-6.875 3.748-.251.109-.523.158-.796.143zM6.1 20.976c-.11 1.053-.27 2.647-.46 4.784-.112 1.053-.208 2.217-.303 3.493-.35 4.146-.684 8.978-.971 14.097 0 1.085-.111 2.185-.175 3.333v.272c-.223 4.114-.382 8.819-.493 13.985 0 1.18 0 2.377-.08 3.589v17.606c.095 4.704.255 9.409.477 13.954 0 1.052.096 2.089.16 3.19v.478c.254 4.609.588 9.313 1.002 13.97.112 1.196.223 2.392.35 3.588.382 3.97.812 7.67 1.29 11.275.111.877.238 1.754.398 2.615.222 1.308.461 2.44.732 3.525 1.103 4.713 2.665 9.306 4.663 13.714.541 1.197 1.098 2.393 1.687 3.54 2.44 4.809 5.238 9.425 8.372 13.811.86 1.196 1.719 2.393 2.626 3.557 3.718 4.853 7.71 9.49 11.953 13.89 1.177 1.212 2.355 2.408 3.549 3.588 4.647 4.577 9.883 9.25 15.565 13.906 1.592 1.228 3.024 2.424 4.52 3.605 6.16 4.784 12.733 9.488 19.577 13.938 2.148 1.371 4.074 2.583 5.714 3.572 2.53 1.595 4.408 2.647 5.41 3.19 1.067-.559 3.184-1.595 5.922-3.19 1.798-1.005 3.883-2.217 6.238-3.604 7.449-4.45 14.707-9.138 21.566-13.954 1.592-1.164 3.327-2.36 5.03-3.604 6.366-4.657 12.239-9.33 17.507-13.923 1.353-1.18 2.706-2.376 4.043-3.604 4.878-4.397 9.531-9.038 13.942-13.906 1.066-1.18 2.1-2.36 3.183-3.556 3.753-4.378 7.21-9.002 10.345-13.843.78-1.18 1.592-2.376 2.197-3.556 2.643-4.386 4.896-8.997 6.732-13.779.43-1.1.828-2.248 1.225-3.54.287-.877.542-1.77.78-2.647.987-3.604 1.926-7.288 2.881-11.275.302-1.196.573-2.392.86-3.588 1.066-4.673 2.069-9.378 2.96-13.97l.111-.559c.207-1.02.398-2.04.59-3.062.859-4.529 1.686-9.233 2.434-13.985l.557-3.589c.748-4.96 1.4-9.664 1.942-13.986.16-1.196.286-2.376.43-3.556.604-5.167 1.114-9.871 1.48-14.018v-.526c.095-1.053.19-2.09.27-3.094.43-5.071.78-9.903 1.003-13.97.08-1.34.143-2.536.207-3.604.08-1.946.143-3.477.175-4.513-6.62-.574-32.022-2.919-58.506-7.703-6.24-1.132-12.271-2.344-17.969-3.62-8.197-1.85-15.677-3.86-22.282-5.996-6.892 2.137-14.658 4.146-23.126 5.996-5.857 1.276-12.064 2.488-18.462 3.62-27.486 4.768-53.509 7.113-59.827 7.639z"/>
                    <ellipse cx="102.259" cy="76.652" rx="21.65" ry="20.186" transform="rotate(-43.99 102.26 76.652)"/>
                    <path d="M106.847 83.953L101.739 83.953 96.645 83.953 82.226 151.347 111.781 151.347z"/>
                    <g opacity=".105">
                        <path d="M146.462 4.593H64.034c6.112-1.085 12.303-2.28 18.399-3.62h46.155c5.905 1.34 11.921 2.535 17.874 3.62zM206.034 22.23H1.994c.096-1.339.192-2.535.303-3.62h203.928c-.047 1.085-.111 2.281-.19 3.62zM205.016 36.249c-.096 1.18-.207 2.392-.319 3.636H.85c0-1.244.111-2.456.175-3.636h203.992zM203.217 53.903c-.143 1.196-.286 2.408-.445 3.62H.276c0-1.212 0-2.424.08-3.62h202.861zM200.83 71.556c-.191 1.197-.366 2.393-.557 3.605H.292v-3.605H200.83zM197.917 89.194l-.716 3.62H.961c0-1.211-.144-2.424-.192-3.62h197.148zM194.145 106.848l-.86 3.604H2.298c-.127-1.196-.239-2.408-.35-3.604h192.198zM189.593 124.486c-.382 1.212-.795 2.424-1.257 3.62H4.78c-.303-1.196-.541-2.408-.748-3.62h185.561zM181.588 142.124c-.7 1.212-1.464 2.44-2.228 3.62H11.273c-.604-1.18-1.177-2.408-1.718-3.62h172.033zM168.871 159.778c-1.034 1.212-2.069 2.424-3.183 3.604H22.446c-.923-1.18-1.798-2.392-2.658-3.604h149.083zM151.65 177.416c-1.353 1.228-2.705 2.44-4.074 3.62H38.09c-1.193-1.18-2.387-2.392-3.565-3.62H151.65zM129.91 195.054c-1.72 1.244-3.39 2.456-5.062 3.62H58.336c-1.496-1.164-3.008-2.376-4.552-3.62h76.125zM103.17 212.708c-2.37 1.387-4.471 2.6-6.27 3.604H83.801c-1.591-1.005-3.596-2.217-5.761-3.604h25.13z" transform="translate(1.592 6.942)"/>
                    </g>
                </g>
            </g>
        </g>
    </g>
</svg>
