<?xml version="1.0" encoding="UTF-8"?>
<!DOCTYPE svg PUBLIC "-//W3C//DTD SVG 1.1//EN" "http://www.w3.org/Graphics/SVG/1.1/DTD/svg11.dtd">
<!-- Creator: CorelDRAW 2021.5 -->
<svg xmlns="http://www.w3.org/2000/svg" xml:space="preserve" width="209px" height="209px" version="1.1" style="shape-rendering:geometricPrecision; text-rendering:geometricPrecision; image-rendering:optimizeQuality; fill-rule:evenodd; clip-rule:evenodd"
viewBox="0 0 8000 8000"
 xmlns:xlink="http://www.w3.org/1999/xlink"
 xmlns:xodm="http://www.corel.com/coreldraw/odm/2003">
 <defs>
  <style type="text/css">
   <![CDATA[
    .fil6 {fill:#373435;fill-rule:nonzero}
    .fil0 {fill:url(#id0)}
    .fil2 {fill:url(#id1)}
    .fil5 {fill:url(#id2)}
    .fil1 {fill:url(#id3)}
    .fil3 {fill:url(#id4)}
    .fil4 {fill:url(#id5)}
   ]]>
  </style>
  <linearGradient id="id0" gradientUnits="userSpaceOnUse" x1="1983.23" y1="3356.03" x2="2351.08" y2="3612.23">
   <stop offset="0" style="stop-opacity:1; stop-color:#8E3D3F"/>
   <stop offset="1" style="stop-opacity:1; stop-color:#ED3237"/>
  </linearGradient>
  <linearGradient id="id1" gradientUnits="userSpaceOnUse" xlink:href="#id0" x1="2012.09" y1="4042.42" x2="2362.35" y2="4286.35">
  </linearGradient>
  <linearGradient id="id2" gradientUnits="userSpaceOnUse" xlink:href="#id0" x1="3639.23" y1="2959.74" x2="5723.59" y2="4411.33">
  </linearGradient>
  <linearGradient id="id3" gradientUnits="userSpaceOnUse" xlink:href="#id0" x1="2679.45" y1="3353.8" x2="3049.24" y2="3611.32">
  </linearGradient>
  <linearGradient id="id4" gradientUnits="userSpaceOnUse" xlink:href="#id0" x1="2682.85" y1="4043.04" x2="3033.63" y2="4287.32">
  </linearGradient>
  <linearGradient id="id5" gradientUnits="userSpaceOnUse" xlink:href="#id0" x1="2386.07" y1="3738.2" x2="2638.81" y2="3914.21">
  </linearGradient>
 </defs>
 <g id="Layer_x0020_1">
  <metadata id="CorelCorpID_0Corel-Layer"/>
  <g id="_2458784694304">
   <g>
    <g>
     <polygon class="fil0" points="2363.57,3295.91 2363.57,3672.38 1970.74,3672.38 "/>
     <polygon class="fil1" points="2676.11,3290.19 2676.11,3674.91 3052.59,3674.91 "/>
     <polygon class="fil2" points="2009.33,3984.84 2365.14,3981.59 2360.26,4347.14 "/>
     <polygon class="fil3" points="2675.45,3981.59 3042.62,3981.59 2673.82,4348.77 "/>
     <path class="fil4" d="M2512.44 3693.58c73.06,0 132.62,59.58 132.62,132.63 0,73.06 -59.57,132.63 -132.62,132.63 -73.05,0 -132.62,-59.57 -132.62,-132.63 0,-73.05 59.57,-132.63 132.62,-132.63zm0 38.16c52.04,0 94.46,42.44 94.46,94.47 0,52.04 -42.43,94.47 -94.46,94.47 -52.03,0 -94.46,-42.44 -94.46,-94.47 0,-52.03 42.43,-94.47 94.46,-94.47z"/>
    </g>
    <path class="fil5" d="M3340.36 3969.11l-1.16 -366.05c-0.15,-48.16 7.57,-87.25 23.3,-117.28 15.73,-30.03 38.25,-51.81 67.56,-65.34 29.31,-13.53 64.87,-20.29 106.39,-20.29l134.74 0 0.5 158.41 -91.72 0c-18.39,0 -32.19,2.57 -41.23,7.71 -9.05,5.15 -14.98,12.45 -17.65,22.06 -2.81,9.6 -4.12,23 -4.07,39.91l154.89 0 0.46 146.09 -156.65 0 2.37 194.8 -177.75 0zm382.78 -568.96l177.75 0 1.2 377.28c0.04,12.44 3.85,22.19 11.31,28.95 7.47,6.9 16.95,10.82 28.58,11.77 11.9,-0.95 21.63,-4.74 29.19,-11.5 7.41,-6.76 11.17,-16.5 11.13,-29.22l-1.2 -377.28 176.13 0 1.2 377.28c0.12,39.23 -9.24,74 -28.21,104.7 -18.97,30.7 -44.87,54.38 -77.69,71.29 -32.95,16.91 -69.59,25.43 -110.04,25.43 -32.6,0 -62.24,-5 -89.06,-15.02 -26.81,-9.87 -49.85,-23.94 -69.12,-42.07 -19.27,-18.13 -34.07,-39.36 -44.3,-63.85 -10.36,-24.35 -15.58,-50.59 -15.67,-78.59l-1.2 -379.18zm499.48 568.96l-0.51 -161.52 132.3 0c10.01,0 18.94,-1.76 26.91,-5.27 7.97,-3.52 11.87,-9.33 11.85,-17.45 -0.05,-13.8 -8.88,-27.87 -26.79,-42.21 -19.26,-16.91 -38.12,-33.68 -56.7,-50.19 -18.72,-16.5 -34.32,-31.92 -46.81,-46.26 -12.63,-14.34 -22.41,-29.22 -29.36,-44.64 -7.08,-15.42 -10.52,-31.93 -10.57,-49.65 0.42,-39.63 10.6,-70.75 30.55,-93.47 20.09,-22.59 43.3,-38.01 69.93,-46.13 26.63,-8.12 52.18,-12.18 76.8,-12.18l176.13 0 0.51 160.03 -117.69 0c-26.51,0 -40.56,6.49 -42.14,19.48 2.6,8.25 8.98,16.64 18.88,25.02 42.71,31.79 72.54,54.38 89.23,68.04 16.81,13.52 32.83,31.38 48.05,53.3 15.22,21.92 24.09,46.4 26.34,73.46 0.56,4.33 0.84,10.55 0.87,18.67 0.11,33.95 -9.68,62.22 -29.49,84.95 -19.68,22.72 -45.06,39.37 -76.13,50.06 -30.94,10.68 -63.53,15.96 -97.62,15.96l-174.5 0zm426.93 0l-1.8 -568.96 179.37 0 1.81 568.96 -179.37 0zm244.34 -288.13c-0.1,-32.2 6.42,-65.34 19.43,-99.56 13.15,-34.22 32.39,-65.88 57.87,-94.96 25.34,-29.08 56.11,-52.35 92.17,-69.8 36.06,-17.45 76.35,-26.11 120.85,-26.11 42.2,0 81.46,7.71 117.76,23.13 36.44,15.56 68.03,37.2 94.76,64.93 26.74,27.87 47.4,59.8 61.85,95.78 14.59,35.98 21.88,74 22.01,114.04 0.13,41.67 -7.86,80.35 -24.12,115.8 -16.12,35.44 -38.34,66.02 -66.26,91.85 -28.05,25.7 -59.24,45.72 -93.96,60.06 -34.59,14.34 -69.73,21.92 -105.17,22.72 -39.37,0 -76.99,-7.3 -112.89,-21.78 -36.03,-14.61 -67.89,-35.3 -95.7,-62.09 -27.81,-26.92 -49.43,-58.58 -65.1,-95.1 -15.54,-36.39 -23.37,-76.02 -23.5,-118.91zm180.89 7.44c0.07,23 5.28,42.89 15.74,59.52 10.47,16.63 24.04,29.22 40.7,37.74 16.8,8.52 34.67,13.12 53.48,13.8 20.16,-0.68 38.94,-5.41 56.64,-14.2 17.56,-8.93 31.72,-21.91 42.48,-38.96 10.63,-17.18 15.98,-37.61 15.91,-61.28 -0.07,-23.81 -5.42,-44.23 -15.89,-61.14 -10.61,-17.05 -24.44,-29.63 -41.65,-38.01 -17.2,-8.39 -35.89,-12.58 -55.78,-12.58 -19.61,0 -37.86,4.46 -54.87,13.39 -17.02,8.93 -30.77,22.05 -41.27,39.64 -10.36,17.58 -15.57,38.28 -15.49,62.09zm481.52 280.7l-1.54 -485.23c-0.06,-18.94 4.22,-35.44 12.97,-49.51 8.74,-14.2 20.35,-25.03 34.8,-32.6 14.45,-7.44 30.13,-11.22 47.04,-11.22 20.96,0 40.6,5.54 58.76,16.5 18.02,10.96 32.41,27.06 42.9,48.29l95.54 184.24 -0.76 -239.43 176.13 0 1.52 478.87c0.07,21.78 -4.06,40.31 -12.4,55.73 -8.34,15.29 -19.67,26.79 -33.84,34.36 -14.31,7.57 -29.86,11.36 -46.77,11.36 -21.37,0 -42.09,-6.09 -62.02,-18.4 -19.92,-12.17 -34.72,-28.81 -44.53,-49.78l-93.24 -181 0.75 237.81 -175.31 0z"/>
   </g>
   <path class="fil6" d="M3457.58 4170.93l20.05 5.07c-4.2,16.42 -11.77,28.96 -22.66,37.63 -10.93,8.63 -24.24,12.93 -40.03,12.93 -16.31,0 -29.56,-3.31 -39.78,-9.94 -10.22,-6.66 -18.01,-16.28 -23.33,-28.85 -5.32,-12.61 -8,-26.15 -8,-40.59 0,-15.75 2.99,-29.5 9.02,-41.23 6.03,-11.73 14.59,-20.65 25.72,-26.74 11.1,-6.09 23.32,-9.13 36.68,-9.13 15.15,0 27.87,3.84 38.2,11.56 10.32,7.71 17.51,18.54 21.56,32.52l-19.7 4.65c-3.52,-11.03 -8.6,-19.03 -15.29,-24.07 -6.66,-5.04 -15.04,-7.54 -25.19,-7.54 -11.63,0 -21.31,2.78 -29.14,8.35 -7.82,5.6 -13.32,13.07 -16.46,22.48 -3.17,9.37 -4.76,19.06 -4.76,29.04 0,12.89 1.87,24.1 5.61,33.72 3.77,9.59 9.58,16.78 17.51,21.53 7.93,4.76 16.49,7.12 25.72,7.12 11.2,0 20.69,-3.24 28.47,-9.69 7.79,-6.48 13.04,-16.1 15.78,-28.82zm35.41 -1.76c0,-20.3 5.64,-35.34 16.95,-45.1 9.41,-8.1 20.89,-12.19 34.46,-12.19 15.08,0 27.41,4.93 36.96,14.83 9.58,9.87 14.34,23.5 14.34,40.91 0,14.13 -2.11,25.23 -6.34,33.3 -4.23,8.1 -10.39,14.37 -18.46,18.85 -8.11,4.48 -16.91,6.69 -26.5,6.69 -15.33,0 -27.73,-4.89 -37.21,-14.76 -9.48,-9.83 -14.2,-24 -14.2,-42.53zm19.1 0c0,14.06 3.06,24.56 9.2,31.54 6.13,7.01 13.85,10.5 23.11,10.5 9.23,0 16.91,-3.53 23.04,-10.54 6.1,-7.01 9.16,-17.72 9.16,-32.1 0,-13.57 -3.06,-23.85 -9.23,-30.83 -6.17,-6.98 -13.81,-10.47 -22.97,-10.47 -9.27,0 -16.98,3.49 -23.11,10.43 -6.13,6.94 -9.2,17.44 -9.2,31.46zm105.21 54.83l0 -109.62 16.7 0 0 16.6c4.27,-7.76 8.21,-12.9 11.84,-15.37 3.59,-2.46 7.57,-3.73 11.91,-3.73 6.27,0 12.61,2.01 19.1,5.99l-6.42 17.26c-4.51,-2.71 -9.06,-4.05 -13.6,-4.05 -4.09,0 -7.72,1.24 -10.96,3.67 -3.24,2.47 -5.54,5.85 -6.91,10.18 -2.07,6.59 -3.1,13.81 -3.1,21.67l0 57.4 -18.57 0zm70.61 42l0 -151.62 16.91 0 0 14.24c3.98,-5.57 8.49,-9.76 13.53,-12.54 5,-2.78 11.1,-4.19 18.25,-4.19 9.37,0 17.62,2.43 24.77,7.22 7.19,4.82 12.58,11.63 16.2,20.4 3.67,8.78 5.5,18.39 5.5,28.86 0,11.2 -2.01,21.32 -6.06,30.3 -4.02,8.98 -9.87,15.86 -17.55,20.65 -7.68,4.76 -15.75,7.15 -24.2,7.15 -6.2,0 -11.74,-1.3 -16.67,-3.91 -4.93,-2.61 -8.95,-5.92 -12.12,-9.9l0 53.35 -18.57 0zm16.81 -96.2c0,14.09 2.85,24.52 8.56,31.29 5.71,6.73 12.65,10.11 20.76,10.11 8.24,0 15.32,-3.49 21.21,-10.5 5.88,-6.98 8.85,-17.79 8.85,-32.45 0,-13.99 -2.89,-24.42 -8.63,-31.39 -5.74,-6.94 -12.61,-10.43 -20.58,-10.43 -7.93,0 -14.94,3.7 -21.04,11.1 -6.09,7.4 -9.13,18.19 -9.13,32.28zm93.83 -0.63c0,-20.3 5.63,-35.34 16.95,-45.1 9.41,-8.1 20.89,-12.19 34.46,-12.19 15.08,0 27.41,4.93 36.96,14.83 9.58,9.87 14.34,23.5 14.34,40.91 0,14.13 -2.11,25.23 -6.35,33.3 -4.22,8.1 -10.39,14.37 -18.46,18.85 -8.11,4.48 -16.91,6.69 -26.5,6.69 -15.32,0 -27.73,-4.89 -37.21,-14.76 -9.48,-9.83 -14.2,-24 -14.2,-42.53zm19.1 0c0,14.06 3.06,24.56 9.2,31.54 6.13,7.01 13.84,10.5 23.11,10.5 9.23,0 16.91,-3.53 23.05,-10.54 6.09,-7.01 9.16,-17.72 9.16,-32.1 0,-13.57 -3.07,-23.85 -9.23,-30.83 -6.17,-6.98 -13.81,-10.47 -22.98,-10.47 -9.27,0 -16.98,3.49 -23.11,10.43 -6.13,6.94 -9.2,17.44 -9.2,31.46zm105.21 54.83l0 -109.62 16.7 0 0 16.6c4.26,-7.76 8.21,-12.9 11.84,-15.37 3.59,-2.46 7.57,-3.73 11.91,-3.73 6.28,0 12.61,2.01 19.1,5.99l-6.41 17.26c-4.51,-2.71 -9.06,-4.05 -13.6,-4.05 -4.09,0 -7.72,1.24 -10.96,3.67 -3.24,2.47 -5.53,5.85 -6.91,10.18 -2.08,6.59 -3.1,13.81 -3.1,21.67l0 57.4 -18.57 0zm142.14 -13.53c-6.9,5.85 -13.53,9.97 -19.87,12.4 -6.38,2.39 -13.22,3.59 -20.51,3.59 -12.05,0 -21.28,-2.92 -27.76,-8.81 -6.45,-5.88 -9.69,-13.43 -9.69,-22.55 0,-5.39 1.2,-10.29 3.66,-14.73 2.43,-4.44 5.64,-8 9.59,-10.68 3.98,-2.68 8.42,-4.72 13.39,-6.09 3.63,-0.95 9.13,-1.9 16.49,-2.78 15.01,-1.8 26.07,-3.91 33.16,-6.41 0.07,-2.54 0.1,-4.16 0.1,-4.83 0,-7.57 -1.76,-12.93 -5.28,-16 -4.72,-4.23 -11.8,-6.31 -21.14,-6.31 -8.74,0 -15.19,1.52 -19.38,4.58 -4.16,3.07 -7.22,8.49 -9.23,16.28l-18.15 -2.5c1.65,-7.75 4.37,-14.06 8.14,-18.81 3.77,-4.79 9.27,-8.49 16.42,-11.06 7.15,-2.57 15.43,-3.87 24.88,-3.87 9.37,0 16.94,1.13 22.8,3.31 5.85,2.22 10.15,4.97 12.93,8.31 2.75,3.35 4.65,7.54 5.78,12.65 0.6,3.17 0.92,8.88 0.92,17.13l0 24.77c0,17.3 0.39,28.22 1.2,32.77 0.78,4.58 2.36,8.98 4.69,13.18l-19.42 0c-1.9,-3.84 -3.17,-8.35 -3.7,-13.53zm-1.55 -41.51c-6.77,2.78 -16.88,5.11 -30.34,7.05 -7.65,1.09 -13.07,2.32 -16.21,3.7 -3.17,1.37 -5.64,3.39 -7.33,6.06 -1.73,2.64 -2.61,5.56 -2.61,8.81 0,4.97 1.91,9.09 5.64,12.4 3.73,3.28 9.23,4.94 16.45,4.94 7.15,0 13.53,-1.55 19.1,-4.69 5.57,-3.13 9.69,-7.44 12.3,-12.86 2.01,-4.19 3,-10.39 3,-18.57l0 -6.84zm88.16 38.41l2.68 16.42c-5.21,1.09 -9.9,1.66 -14.02,1.66 -6.77,0 -11.98,-1.06 -15.72,-3.2 -3.7,-2.11 -6.31,-4.94 -7.82,-8.42 -1.52,-3.45 -2.29,-10.78 -2.29,-21.92l0 -63.07 -13.64 0 0 -14.45 13.64 0 0 -27.17 18.5 -11.13 0 38.3 18.67 0 0 14.45 -18.67 0 0 64.09c0,5.32 0.32,8.7 0.95,10.22 0.67,1.52 1.72,2.71 3.2,3.63 1.48,0.88 3.59,1.34 6.34,1.34 2.08,0 4.79,-0.25 8.17,-0.74zm93.2 -18.68l19.2 2.36c-3.03,11.24 -8.63,19.94 -16.81,26.15 -8.21,6.17 -18.67,9.26 -31.39,9.26 -16.03,0 -28.76,-4.93 -38.13,-14.8 -9.41,-9.87 -14.09,-23.72 -14.09,-41.54 0,-18.46 4.76,-32.77 14.24,-42.95 9.51,-10.19 21.81,-15.29 36.96,-15.29 14.66,0 26.64,5 35.91,14.97 9.3,9.97 13.95,24.03 13.95,42.11 0,1.13 -0.04,2.78 -0.1,4.97l-81.75 0c0.67,12.05 4.09,21.28 10.22,27.66 6.13,6.41 13.74,9.62 22.91,9.62 6.8,0 12.61,-1.8 17.44,-5.39 4.83,-3.56 8.63,-9.27 11.45,-17.13zm-61 -30.06l61.2 0c-0.81,-9.2 -3.17,-16.14 -7.01,-20.72 -5.92,-7.15 -13.6,-10.75 -23.01,-10.75 -8.53,0 -15.72,2.85 -21.53,8.56 -5.81,5.71 -9.02,13.36 -9.66,22.91zm157.86 16.74l18.89 -1.65c0.88,7.57 2.96,13.78 6.24,18.64 3.28,4.86 8.35,8.78 15.22,11.77 6.87,2.99 14.62,4.47 23.22,4.47 7.65,0 14.38,-1.13 20.22,-3.38 5.85,-2.29 10.22,-5.39 13.07,-9.34 2.85,-3.98 4.3,-8.28 4.3,-12.96 0,-4.76 -1.37,-8.88 -4.16,-12.44 -2.75,-3.56 -7.3,-6.52 -13.6,-8.91 -4.09,-1.59 -13.04,-4.05 -26.96,-7.4 -13.88,-3.35 -23.64,-6.48 -29.21,-9.44 -7.22,-3.77 -12.61,-8.49 -16.17,-14.09 -3.52,-5.6 -5.28,-11.87 -5.28,-18.85 0,-7.61 2.15,-14.76 6.48,-21.39 4.33,-6.66 10.68,-11.7 18.99,-15.15 8.35,-3.42 17.58,-5.15 27.76,-5.15 11.24,0 21.11,1.8 29.71,5.43 8.56,3.59 15.15,8.92 19.76,15.93 4.58,7.01 7.08,14.97 7.44,23.85l-19.2 1.44c-1.06,-9.55 -4.55,-16.81 -10.5,-21.67 -5.95,-4.9 -14.73,-7.33 -26.35,-7.33 -12.12,0 -20.93,2.22 -26.5,6.66 -5.53,4.44 -8.31,9.8 -8.31,16.03 0,5.46 1.97,9.94 5.88,13.43 3.88,3.52 13.92,7.12 30.2,10.78 16.28,3.7 27.45,6.91 33.51,9.65 8.81,4.09 15.33,9.23 19.52,15.44 4.19,6.24 6.27,13.42 6.27,21.53 0,8.07 -2.29,15.65 -6.91,22.76 -4.61,7.12 -11.24,12.65 -19.87,16.63 -8.63,3.94 -18.36,5.92 -29.14,5.92 -13.7,0 -25.2,-1.97 -34.43,-5.99 -9.27,-3.98 -16.52,-9.97 -21.81,-18 -5.25,-8 -8.04,-17.09 -8.28,-27.2zm138.51 -6.2c0,-20.3 5.64,-35.34 16.95,-45.1 9.41,-8.1 20.9,-12.19 34.46,-12.19 15.08,0 27.41,4.93 36.96,14.83 9.59,9.87 14.34,23.5 14.34,40.91 0,14.13 -2.11,25.23 -6.34,33.3 -4.23,8.1 -10.39,14.37 -18.46,18.85 -8.1,4.48 -16.91,6.69 -26.5,6.69 -15.33,0 -27.73,-4.89 -37.21,-14.76 -9.48,-9.83 -14.2,-24 -14.2,-42.53zm19.1 0c0,14.06 3.07,24.56 9.2,31.54 6.13,7.01 13.85,10.5 23.11,10.5 9.23,0 16.91,-3.53 23.04,-10.54 6.1,-7.01 9.16,-17.72 9.16,-32.1 0,-13.57 -3.06,-23.85 -9.23,-30.83 -6.17,-6.98 -13.81,-10.47 -22.98,-10.47 -9.27,0 -16.98,3.49 -23.11,10.43 -6.13,6.94 -9.2,17.44 -9.2,31.46zm105 54.83l0 -151.33 18.57 0 0 151.33 -18.57 0zm119.24 0l0 -16.1c-8.56,12.41 -20.15,18.57 -34.81,18.57 -6.45,0 -12.51,-1.23 -18.11,-3.7 -5.61,-2.46 -9.76,-5.6 -12.48,-9.34 -2.75,-3.77 -4.65,-8.35 -5.74,-13.78 -0.74,-3.67 -1.13,-9.44 -1.13,-17.37l0 -67.9 18.57 0 0 60.78c0,9.72 0.39,16.24 1.13,19.63 1.2,4.9 3.67,8.7 7.43,11.52 3.81,2.78 8.49,4.16 14.06,4.16 5.57,0 10.78,-1.41 15.68,-4.27 4.9,-2.85 8.35,-6.76 10.36,-11.66 2.04,-4.93 3.07,-12.09 3.07,-21.43l0 -58.74 18.57 0 0 109.62 -16.59 0zm86.29 -16.63l2.68 16.42c-5.22,1.09 -9.9,1.66 -14.02,1.66 -6.77,0 -11.98,-1.06 -15.72,-3.2 -3.7,-2.11 -6.31,-4.94 -7.82,-8.42 -1.52,-3.45 -2.29,-10.78 -2.29,-21.92l0 -63.07 -13.63 0 0 -14.45 13.63 0 0 -27.17 18.5 -11.13 0 38.3 18.67 0 0 14.45 -18.67 0 0 64.09c0,5.32 0.32,8.7 0.95,10.22 0.67,1.52 1.72,2.71 3.2,3.63 1.48,0.88 3.59,1.34 6.34,1.34 2.08,0 4.8,-0.25 8.17,-0.74zm18.26 -113.32l0 -21.39 18.6 0 0 21.39 -18.6 0zm0 129.95l0 -109.62 18.6 0 0 109.62 -18.6 0zm39.95 -54.83c0,-20.3 5.64,-35.34 16.95,-45.1 9.41,-8.1 20.9,-12.19 34.46,-12.19 15.08,0 27.41,4.93 36.96,14.83 9.59,9.87 14.34,23.5 14.34,40.91 0,14.13 -2.11,25.23 -6.34,33.3 -4.23,8.1 -10.39,14.37 -18.46,18.85 -8.1,4.48 -16.91,6.69 -26.5,6.69 -15.33,0 -27.73,-4.89 -37.21,-14.76 -9.48,-9.83 -14.2,-24 -14.2,-42.53zm19.1 0c0,14.06 3.07,24.56 9.2,31.54 6.13,7.01 13.85,10.5 23.11,10.5 9.23,0 16.91,-3.53 23.04,-10.54 6.1,-7.01 9.16,-17.72 9.16,-32.1 0,-13.57 -3.06,-23.85 -9.23,-30.83 -6.17,-6.98 -13.81,-10.47 -22.98,-10.47 -9.27,0 -16.98,3.49 -23.11,10.43 -6.13,6.94 -9.2,17.44 -9.2,31.46zm105.43 54.83l0 -109.62 16.7 0 0 15.57c8.07,-12.05 19.7,-18.07 34.89,-18.07 6.63,0 12.69,1.2 18.22,3.56 5.57,2.4 9.69,5.5 12.44,9.37 2.78,3.84 4.69,8.42 5.81,13.71 0.67,3.45 1.02,9.48 1.02,18.07l0 67.41 -18.6 0 0 -66.7c0,-7.54 -0.7,-13.21 -2.15,-16.98 -1.44,-3.74 -4.02,-6.73 -7.68,-8.95 -3.7,-2.26 -8,-3.38 -12.96,-3.38 -7.93,0 -14.73,2.54 -20.51,7.54 -5.74,5.04 -8.59,14.55 -8.59,28.61l0 59.87 -18.57 0zm110.15 -32.74l18.36 -2.89c1.02,7.36 3.91,13 8.63,16.95 4.69,3.91 11.28,5.89 19.77,5.89 8.53,0 14.87,-1.76 18.99,-5.22 4.12,-3.49 6.2,-7.58 6.2,-12.23 0,-4.23 -1.83,-7.5 -5.5,-9.93 -2.54,-1.66 -8.88,-3.74 -18.99,-6.28 -13.6,-3.45 -23.08,-6.41 -28.33,-8.95 -5.25,-2.5 -9.27,-5.99 -11.98,-10.43 -2.71,-4.44 -4.09,-9.34 -4.09,-14.69 0,-4.9 1.13,-9.41 3.38,-13.57 2.22,-4.19 5.29,-7.65 9.13,-10.39 2.89,-2.11 6.84,-3.95 11.81,-5.43 5,-1.48 10.36,-2.22 16.07,-2.22 8.59,0 16.14,1.27 22.66,3.73 6.52,2.47 11.31,5.81 14.41,10.04 3.1,4.26 5.22,9.9 6.38,16.98l-18.15 2.5c-0.85,-5.64 -3.24,-10.04 -7.19,-13.21 -3.94,-3.17 -9.55,-4.76 -16.77,-4.76 -8.53,0 -14.62,1.41 -18.25,4.23 -3.67,2.82 -5.5,6.13 -5.5,9.9 0,2.43 0.78,4.58 2.29,6.52 1.52,2.01 3.88,3.63 7.12,4.96 1.87,0.67 7.33,2.26 16.42,4.72 13.14,3.52 22.3,6.37 27.48,8.63 5.21,2.22 9.3,5.49 12.26,9.76 2.96,4.26 4.44,9.55 4.44,15.89 0,6.2 -1.83,12.02 -5.43,17.51 -3.63,5.46 -8.85,9.69 -15.65,12.69 -6.8,3 -14.52,4.47 -23.11,4.47 -14.27,0 -25.12,-2.96 -32.59,-8.88 -7.47,-5.92 -12.22,-14.69 -14.27,-26.32zm174.24 32.74l0 -151.33 57.08 0c10.04,0 17.72,0.49 23.01,1.44 7.43,1.23 13.67,3.59 18.71,7.08 5,3.46 9.06,8.35 12.12,14.59 3.07,6.27 4.58,13.14 4.58,20.65 0,12.86 -4.09,23.78 -12.26,32.7 -8.21,8.88 -23.01,13.35 -44.4,13.35l-38.83 0 0 61.52 -20.01 0zm20.01 -79.39l39.15 0c12.93,0 22.13,-2.4 27.55,-7.22 5.43,-4.83 8.14,-11.59 8.14,-20.33 0,-6.34 -1.59,-11.77 -4.79,-16.28 -3.21,-4.51 -7.4,-7.47 -12.65,-8.92 -3.38,-0.88 -9.59,-1.34 -18.68,-1.34l-38.72 0 0 54.09zm149.09 79.39l-41.72 -109.62 19.63 0 23.54 65.65c2.54,7.08 4.86,14.44 7.01,22.09 1.65,-5.78 3.94,-12.72 6.91,-20.86l24.38 -66.88 19.1 0 -41.51 109.62 -17.33 0zm115.82 -16.63l2.68 16.42c-5.21,1.09 -9.9,1.66 -14.02,1.66 -6.76,0 -11.98,-1.06 -15.71,-3.2 -3.7,-2.11 -6.31,-4.94 -7.82,-8.42 -1.52,-3.45 -2.29,-10.78 -2.29,-21.92l0 -63.07 -13.64 0 0 -14.45 13.64 0 0 -27.17 18.5 -11.13 0 38.3 18.67 0 0 14.45 -18.67 0 0 64.09c0,5.32 0.31,8.7 0.95,10.22 0.67,1.52 1.73,2.71 3.21,3.63 1.48,0.88 3.59,1.34 6.34,1.34 2.08,0 4.79,-0.25 8.17,-0.74zm23.43 16.63l0 -21.18 21.18 0 0 21.18 -21.18 0zm113.74 0l0 -151.33 20.05 0 0 133.47 74.52 0 0 17.86 -94.57 0zm156.63 -16.63l2.68 16.42c-5.22,1.09 -9.9,1.66 -14.02,1.66 -6.77,0 -11.98,-1.06 -15.72,-3.2 -3.7,-2.11 -6.31,-4.94 -7.82,-8.42 -1.52,-3.45 -2.29,-10.78 -2.29,-21.92l0 -63.07 -13.63 0 0 -14.45 13.63 0 0 -27.17 18.5 -11.13 0 38.3 18.68 0 0 14.45 -18.68 0 0 64.09c0,5.32 0.32,8.7 0.95,10.22 0.67,1.52 1.72,2.71 3.2,3.63 1.48,0.88 3.59,1.34 6.34,1.34 2.08,0 4.8,-0.25 8.18,-0.74zm89.28 16.63l0 -13.85c-6.94,10.89 -17.16,16.31 -30.65,16.31 -8.74,0 -16.77,-2.39 -24.1,-7.22 -7.33,-4.79 -13,-11.52 -17.06,-20.19 -4.02,-8.63 -6.02,-18.53 -6.02,-29.77 0,-10.92 1.83,-20.86 5.46,-29.78 3.67,-8.91 9.13,-15.75 16.42,-20.47 7.29,-4.76 15.47,-7.15 24.49,-7.15 6.59,0 12.47,1.41 17.62,4.19 5.18,2.78 9.37,6.41 12.61,10.89l0 -54.3 18.46 0 0 151.33 -17.23 0zm-58.74 -54.72c0,14.06 2.96,24.56 8.88,31.5 5.92,6.94 12.9,10.43 20.96,10.43 8.11,0 15.01,-3.35 20.69,-9.97 5.67,-6.63 8.53,-16.77 8.53,-30.41 0,-15.01 -2.89,-26 -8.67,-33.02 -5.78,-7.05 -12.9,-10.54 -21.39,-10.54 -8.25,0 -15.15,3.39 -20.69,10.12 -5.53,6.73 -8.31,17.37 -8.31,31.89zm110.46 54.72l0 -21.18 21.17 0 0 21.18 -21.17 0z"/>
  </g>
 </g>
</svg>
