<svg xmlns="http://www.w3.org/2000/svg" width="15" height="15" viewBox="0 0 15 15">
    <defs>
        <linearGradient id="npuhvnabaa" x1="6.714%" x2="93.608%" y1="93.485%" y2="6.619%">
            <stop offset="0%" stop-color="#FD5"/>
            <stop offset="50%" stop-color="#FF543E"/>
            <stop offset="100%" stop-color="#C837AB"/>
        </linearGradient>
    </defs>
    <g fill="none">
        <circle cx="7.5" cy="7.5" r="7.5" fill="url(#npuhvnabaa)"/>
        <path fill="#FFF" d="M7.5 3.004c-1.843 0-3.593-.163-4.262 1.55-.276.709-.236 1.629-.236 2.945 0 1.156-.037 2.242.236 2.944.667 1.716 2.432 1.551 4.261 1.551 1.765 0 3.585.184 4.262-1.55.276-.716.236-1.622.236-2.945 0-1.756.097-2.89-.756-3.74-.863-.863-2.03-.755-3.743-.755H7.5zm-.403.81c3.845-.006 4.334-.433 4.064 5.5-.096 2.099-1.695 1.868-3.66 1.868-3.584 0-3.687-.102-3.687-3.685 0-3.624.284-3.68 3.283-3.684v.001zm2.804.747c-.298 0-.54.24-.54.539 0 .297.242.539.54.539.298 0 .54-.242.54-.54 0-.297-.242-.538-.54-.538zm-2.4.63c-1.277 0-2.31 1.034-2.31 2.308 0 1.275 1.033 2.308 2.31 2.308 1.275 0 2.308-1.033 2.308-2.308 0-1.274-1.033-2.308-2.309-2.308zm0 .81c1.981 0 1.984 2.997 0 2.997C5.517 8.998 5.514 6 7.5 6z"/>
    </g>
</svg>
