<svg xmlns="http://www.w3.org/2000/svg" width="20" height="20" viewBox="0 0 20 20">
    <path fill="#AAA" d="M13.53 2.353c-.65 0-1.177-.527-1.177-1.177S12.879 0 13.529 0h5.295C19.473 0 20 .527 20 1.176v5.295c0 .65-.527 1.176-1.176 1.176-.65 0-1.177-.526-1.177-1.176V4.017l-6.815 6.815c-.46.459-1.204.459-1.664 0-.459-.46-.459-1.204 0-1.664l6.815-6.815H13.53zm4.117 8.824c0-.65.527-1.177 1.177-1.177S20 10.527 20 11.177v7.647c0 .65-.527 1.176-1.176 1.176H1.176C.526 20 0 19.473 0 18.824V1.176C0 .526.527 0 1.176 0h7.647C9.473 0 10 .527 10 1.176c0 .65-.527 1.177-1.177 1.177h-6.47v15.294h15.294v-6.47z"/>
</svg>
