<svg xmlns="http://www.w3.org/2000/svg" width="23" height="20" viewBox="0 0 23 20">
    <path d="M21.862 6.738L19.618 5.59V2.001c0-1.526-1.61-2.485-2.903-1.747C14.19 1.695 11.3 2.99 8.356 4H1.953c-1.077 0-1.953.897-1.953 2v4c0 .9.584 1.663 1.385 1.913l1.022 6.475.005.024c.18.92.974 1.587 1.89 1.587 1.21 0 2.122-1.13 1.893-2.347L5.7 14.455c1.047-.402 1.822-1.336 2.046-2.454h.61c2.984 1.024 5.796 2.285 8.36 3.747 1.291.738 2.902-.22 2.902-1.748v-3.587l2.244-1.15c.22-.112.36-.343.36-.595V7.334c0-.252-.14-.483-.36-.596zM4.302 18.667c-.294 0-.55-.212-.612-.505L2.718 12H4l.91 5.873.005.026c.077.397-.219.767-.614.767zm1.187-5.576l-.17-1.095H6.4c-.162.465-.487.86-.91 1.095zm2.324-2.424h-5.86c-.359 0-.65-.299-.65-.666V6c0-.367.291-.667.65-.667h5.86v5.333zM18.316 14c0 .512-.54.827-.967.584-2.534-1.446-5.302-2.7-8.234-3.728v-5.71c2.9-1.019 5.737-2.303 8.234-3.728.427-.243.967.071.967.583v12zm2.604-5.744l-1.302.666V7.08l1.302.666v.51z"/>
</svg>
