<svg xmlns="http://www.w3.org/2000/svg" width="65" height="70" viewBox="0 0 65 70">
    <g fill="none">
        <path fill="#E30E13" d="M8.75 19.688c0-7.64 6.215-13.855 13.854-13.855h26.638C48.282 2.476 45.222 0 41.562 0H8.022C3.596 0 0 3.596 0 8.02v45.21c0 4.424 3.596 8.02 8.02 8.02h.73V19.687z"/>
        <path fill="#AAA" d="M56.146 11.667H22.604c-4.424 0-8.02 3.596-8.02 8.02V61.98c0 4.425 3.596 8.021 8.02 8.021h33.542c4.424 0 8.02-3.596 8.02-8.02V19.687c0-4.425-3.596-8.021-8.02-8.021zM50.312 61.25H28.439c-1.208 0-2.188-.98-2.188-2.188 0-1.207.98-2.187 2.188-2.187h21.875c1.207 0 2.187.98 2.187 2.188 0 1.207-.98 2.187-2.188 2.187zm0-11.667H28.439c-1.208 0-2.188-.98-2.188-2.187 0-1.208.98-2.188 2.188-2.188h21.875c1.207 0 2.187.98 2.187 2.188 0 1.207-.98 2.187-2.188 2.187zm0-10.208H28.439c-1.208 0-2.188-.98-2.188-2.188 0-1.207.98-2.187 2.188-2.187h21.875c1.207 0 2.187.98 2.187 2.188 0 1.207-.98 2.187-2.188 2.187zm0-11.667H28.439c-1.208 0-2.188-.98-2.188-2.187 0-1.208.98-2.188 2.188-2.188h21.875c1.207 0 2.187.98 2.187 2.188 0 1.207-.98 2.187-2.188 2.187z"/>
    </g>
</svg>
