<svg xmlns="http://www.w3.org/2000/svg" width="19" height="23" viewBox="0 0 19 23">
    <path d="M17.808 15.494l-1.04-1.293c-.647-.814-.994-1.844-.994-2.898V8.884c0-3.496-2.543-6.393-5.803-6.825V.862C9.971.383 9.601 0 9.14 0c-.462 0-.832.383-.832.862V2.06c-3.26.432-5.803 3.33-5.803 6.825v2.42c0 1.053-.347 2.083-.994 2.897L.493 15.494c-.532.67-.648 1.604-.278 2.395.37.79 1.11 1.293 1.965 1.293h3.19c.186 2.011 1.804 3.568 3.792 3.568 1.988 0 3.607-1.58 3.791-3.568h3.19c.856 0 1.596-.503 1.966-1.293.323-.79.231-1.7-.3-2.395zm-8.66 5.631c-1.005 0-1.836-.708-1.989-1.625h3.978c-.153.917-.984 1.625-1.989 1.625zm7.508-3.563c-.047.096-.164.313-.467.313H2.11c-.302 0-.419-.217-.466-.313-.046-.096-.116-.337.07-.577l1.026-1.3c.886-1.13 1.375-2.55 1.375-4.018V9.26c.024-2.863 2.262-5.197 5.036-5.197 2.773 0 5.011 2.334 5.011 5.173v2.43c0 1.468.49 2.888 1.376 4.02l1.025 1.299c.21.24.14.48.094.577z"/>
</svg>
