<svg xmlns="http://www.w3.org/2000/svg" width="18" height="19" viewBox="0 0 18 19">
    <path d="M9 .074c-4.963 0-9 4.037-9 9s4.037 9 9 9 9-4.037 9-9-4.037-9-9-9zm-.614 1.349v3.151H6.021c.144-.416.308-.803.486-1.15.55-1.074 1.213-1.744 1.88-2.001zm1.228 0c.666.257 1.329.927 1.879 2 .178.348.342.735.486 1.151H9.614V1.423zm-3.618.48c-.211.294-.406.614-.582.958-.265.518-.493 1.094-.684 1.713H2.66c.834-1.176 1.987-2.108 3.336-2.672zm6.008 0c1.349.563 2.502 1.495 3.337 2.671H13.27c-.19-.619-.419-1.195-.684-1.713-.176-.344-.371-.664-.582-.959zM1.95 5.8h2.467c-.173.835-.28 1.727-.313 2.66H1.253c.074-.945.316-1.84.697-2.66zm3.726 0h2.71v2.66H5.331c.037-.946.158-1.84.345-2.66zm3.938 0h2.71c.187.82.308 1.714.345 2.66H9.614V5.8zm3.97 0h2.466c.38.82.623 1.715.697 2.66h-2.85c-.033-.933-.141-1.825-.314-2.66zM1.252 9.688h2.85c.033.932.141 1.825.314 2.659H1.95c-.38-.82-.624-1.714-.697-2.66zm4.078 0h3.055v2.659h-2.71c-.186-.819-.308-1.715-.345-2.66zm4.283 0h3.055c-.037.944-.159 1.84-.345 2.659h-2.71v-2.66zm4.282 0h2.851c-.073.945-.317 1.84-.697 2.659h-2.467c.173-.834.28-1.727.313-2.66zM2.66 13.574H4.73c.19.618.419 1.189.684 1.707.179.348.38.672.595.971-1.355-.563-2.512-1.498-3.35-2.678zm3.356 0h2.371v3.151c-.666-.257-1.329-.927-1.879-2-.179-.35-.347-.732-.492-1.15zm3.599 0h2.371c-.145.42-.313.801-.492 1.15-.55 1.074-1.213 1.744-1.88 2.001v-3.15zm3.656 0h2.07c-.837 1.18-1.994 2.115-3.349 2.678.215-.299.416-.623.595-.971.265-.518.493-1.089.684-1.707z"/>
</svg>
