<svg xmlns="http://www.w3.org/2000/svg" width="18" height="18" viewBox="0 0 18 18">
    <g>
        <path d="M11.523 16.171c-2.343 1.007-5.06.522-6.937-1.243 1.586-1.717.406-4.576-1.93-4.576C1.19 10.352 0 11.57 0 13.067c0 1.841 1.769 3.155 3.485 2.578 2.253 2.309 5.636 2.965 8.53 1.722.323-.139.475-.52.34-.85-.137-.33-.509-.485-.832-.346zM2.06 8.14c.331.122.694-.053.814-.388.66-1.855 2.058-3.236 3.71-3.911.418.938 1.343 1.591 2.416 1.591 1.464 0 2.656-1.217 2.656-2.714C11.656 1.221 10.465.004 9 .004c-1.407 0-2.561 1.124-2.65 2.54-2.08.769-3.85 2.464-4.67 4.764-.119.337.051.709.38.831zM16.753 10.767c.23-2.566-.761-5.01-2.539-6.648-.26-.24-.662-.219-.896.047-.235.266-.214.676.046.916 1.434 1.323 2.24 3.253 2.145 5.276-1.543-.097-2.82 1.16-2.82 2.709 0 1.496 1.19 2.714 2.655 2.714 1.465 0 2.656-1.218 2.656-2.714 0-.968-.499-1.82-1.247-2.3z"/>
    </g>
</svg>
