<svg xmlns="http://www.w3.org/2000/svg" width="18" height="18" viewBox="0 0 18 18">
    <g fill-rule="evenodd">
        <path fill-rule="nonzero" d="M.522 11.377l1.072 1.072 2.286 2.286 2.105 2.105.556.557c.026.026.05.053.077.077.46.45 1.16.648 1.783.448.294-.093.55-.25.768-.466l.123-.123.527-.527 1.904-1.904 2.4-2.4 2.146-2.145 1.159-1.16c.369-.369.593-.856.57-1.386-.01-.264-.022-.531-.034-.796-.047-1.07-.094-2.138-.139-3.207-.02-.447-.038-.893-.059-1.34-.012-.303-.002-.641-.092-.932C17.491.945 17 .439 16.384.305c-.162-.037-.327-.05-.492-.055l-.997-.043-3.25-.14c-.401-.019-.803-.035-1.204-.054l-.259-.012c-.485-.018-.951.171-1.304.5-.291.27-.564.562-.846.843L6.044 3.333 3.64 5.735l-2.08 2.08-1.019 1.02c-.22.221-.383.488-.47.79-.188.617.004 1.292.45 1.752.297.306.858.322 1.153 0 .302-.33.318-.825 0-1.153-.026-.028-.053-.057-.077-.088l.128.165c-.053-.069-.096-.142-.13-.22.026.066.055.13.081.196-.032-.077-.053-.159-.067-.24.01.07.02.144.028.216-.012-.092-.012-.184 0-.278-.01.072-.02.145-.028.216.012-.083.035-.163.067-.24-.026.065-.055.13-.081.196.034-.08.077-.153.13-.22l-.128.165c.085-.106.191-.202.287-.298l.6-.599 2.002-2.003L6.91 4.77l2.088-2.088c.332-.332.663-.667.997-.997.034-.034.069-.065.108-.095l-.165.128c.069-.051.142-.094.222-.128-.065.026-.13.055-.196.081.082-.03.163-.053.249-.065-.072.01-.145.02-.216.028.23-.024.472.006.703.017l1.4.06c1.067.048 2.133.095 3.2.14.26.012.526.008.783.038-.071-.01-.145-.02-.216-.028.084.012.161.032.239.063l-.196-.082c.083.035.16.08.232.135l-.165-.129c.063.051.118.106.17.17l-.13-.166c.056.072.1.15.135.233-.026-.066-.055-.13-.081-.196.03.078.05.157.063.238-.01-.07-.02-.144-.028-.216.024.214.022.437.032.653l.061 1.414.139 3.189c.012.27.05.56.022.833l.029-.216c-.012.086-.033.167-.065.249.026-.066.055-.13.081-.196-.035.08-.075.153-.128.222l.128-.165c-.088.11-.196.208-.295.308l-.6.599-2.002 2.003-2.423 2.423-2.089 2.088c-.332.332-.662.666-.996.996-.03.031-.063.06-.098.088l.165-.128c-.07.053-.142.096-.22.13.065-.026.13-.055.196-.081-.078.032-.16.053-.24.067l.215-.029c-.091.013-.183.013-.277 0l.216.029c-.083-.012-.163-.035-.24-.067l.195.081c-.08-.034-.153-.077-.22-.13l.165.128c-.24-.196-.45-.44-.668-.658L5.74 14.291l-1.768-1.768-1.54-1.54c-.25-.25-.496-.504-.749-.749l-.01-.01c-.301-.302-.856-.324-1.153 0-.298.326-.32.83.002 1.153z"/>
        <circle cx="14" cy="4" r="1"/>
    </g>
</svg>
