<svg xmlns="http://www.w3.org/2000/svg" width="20" height="18" viewBox="0 0 20 18">
    <g>
        <path d="M16.875 0H3.125C1.4.002.002 1.44 0 3.214v9.643c.002 1.775 1.4 3.212 3.125 3.214h4.74l1.693 1.74c.244.252.64.252.884 0l1.692-1.74h4.741c1.725-.002 3.123-1.44 3.125-3.214V3.214C19.998 1.44 18.6.002 16.875 0zm1.875 12.857c-.001 1.065-.84 1.928-1.875 1.929h-5c-.166 0-.325.068-.442.188L10 16.448l-1.433-1.474c-.117-.12-.276-.188-.442-.188h-5c-1.035-.001-1.874-.864-1.875-1.929V3.214c.001-1.064.84-1.927 1.875-1.928h13.75c1.035 0 1.874.864 1.875 1.928v9.643z"/>
        <path d="M13.75 7.071c.345 0 .625-.287.625-.642 0-.355-.28-.643-.625-.643H12.5V3.857c0-.355-.28-.643-.625-.643s-.625.288-.625.643v1.929h-2.5V3.857c0-.355-.28-.643-.625-.643s-.625.288-.625.643v1.929H6.25c-.345 0-.625.288-.625.643 0 .355.28.642.625.642H7.5V9H6.25c-.345 0-.625.288-.625.643 0 .355.28.643.625.643H7.5v1.928c0 .355.28.643.625.643s.625-.288.625-.643v-1.928h2.5v1.928c0 .355.28.643.625.643s.625-.288.625-.643v-1.928h1.25c.345 0 .625-.288.625-.643 0-.355-.28-.643-.625-.643H12.5V7.071h1.25zM11.25 9h-2.5V7.071h2.5V9z"/>
    </g>
</svg>
