<svg xmlns="http://www.w3.org/2000/svg" width="18" height="18" viewBox="0 0 18 18">
    <path d="M15.585 15.12c3.332-3.574 3.2-9.15-.297-12.561-3.496-3.412-9.08-3.412-12.576 0-3.497 3.411-3.629 8.987-.297 12.56v.03h.03C4.14 16.969 6.514 18 9 18c2.486 0 4.86-1.032 6.555-2.85h.03v-.03zM1.317 9.01c-.003-3.302 2.108-6.235 5.241-7.284 3.134-1.05 6.588.02 8.577 2.657 1.99 2.637 2.068 6.248.196 8.969-.571-1.979-2.032-3.58-3.951-4.329 1.21-1.003 1.66-2.657 1.126-4.134-.534-1.477-1.938-2.462-3.51-2.462-1.573 0-2.976.985-3.51 2.462-.534 1.477-.084 3.13 1.126 4.134-1.92.75-3.38 2.35-3.952 4.329-.878-1.278-1.347-2.792-1.343-4.342zm5.268-2.851c0-1.332 1.081-2.412 2.415-2.412s2.415 1.08 2.415 2.412c0 1.332-1.081 2.412-2.415 2.412-1.333-.002-2.412-1.08-2.415-2.412zm-2.827 8.447C4.028 11.916 6.294 9.87 9 9.87s4.972 2.048 5.242 4.737c-2.944 2.772-7.54 2.772-10.484 0z"/>
</svg>
