<?xml version="1.0" encoding="UTF-8"?>
<svg width="380px" height="214px" viewBox="0 0 380 214" version="1.1" xmlns="http://www.w3.org/2000/svg" xmlns:xlink="http://www.w3.org/1999/xlink">
    <title>Video 380 x 214</title>
    <g id="Feeds-Details" stroke="none" stroke-width="1" fill="none" fill-rule="evenodd">
        <g id="Video-380-x-214">
            <rect id="Rectangle" fill="#F9F8FC" x="0" y="0" width="380" height="214"></rect>
            <g id="Group-60" transform="translate(68.875000, 78.466667)" fill="#0035B9">
                <g id="clapperboard" fill-rule="nonzero">
                    <path d="M2.31283071,33.3059824 L2.31283071,51.1594857 C2.31283071,54.4421871 4.98059461,57.1106163 8.25700902,57.1106163 L51.0553604,57.1106163 C54.3342268,57.1106163 56.9995387,54.4420755 56.9995387,51.1594857 L56.9995387,33.3059824 L2.31283071,33.3059824 L2.31283071,33.3059824 Z" id="Path"></path>
                    <polygon id="Path" points="28.1487688 5.44257777 19.2513928 7.55643256 26.705439 18.5375645 36.3422011 16.342811"></polygon>
                    <polygon id="Path" points="16.7786735 8.14448233 7.18939077 10.4201345 14.5649733 21.2989435 24.2160015 19.1017352"></polygon>
                    <path d="M56.9615329,10.3868823 L54.9380848,2.70273452 C54.4720954,0.834030651 52.5604357,-0.341845709 50.6748563,0.088981642 L42.6858307,1.98859439 L50.2659314,13.176827 L56.0745816,11.8533245 C56.3907767,11.7819105 56.6618329,11.5842945 56.8283453,11.3082347 C56.9948576,11.0321749 57.042337,10.701104 56.9615329,10.3868823 Z" id="Path"></path>
                    <polygon id="Path" points="40.2107708 2.57653257 30.6738715 4.84270006 38.8815699 15.7667008 47.776494 13.7408861"></polygon>
                    <polygon id="Path" points="14.2939171 21.4060646 10.4896564 30.9255525 19.8173564 30.9255525 23.6216172 21.4060646"></polygon>
                    <polygon id="Path" points="26.1823852 21.4060646 22.3781244 30.9255525 31.705713 30.9255525 35.5100852 21.4060646"></polygon>
                    <path d="M55.8107699,21.4060646 L49.9593213,21.4060646 L46.1550606,30.9278958 L56.9996501,30.9278958 L56.9996501,22.5962237 C56.9995387,21.9368715 56.4693518,21.4060646 55.8107699,21.4060646 Z" id="Path"></path>
                    <polygon id="Path" points="38.0708533 21.4060646 34.2664811 30.9255525 43.5918406 30.9255525 47.3984419 21.4060646"></polygon>
                    <path d="M4.71667144,11.0105275 L2.77882005,11.4699205 C1.83491579,11.6841625 1.03601323,12.2578179 0.52956607,13.0815339 C0.0231189127,13.9075932 -0.126675317,14.8788238 0.108715615,15.8190339 L2.31283071,24.5410282 L2.31283071,30.9254409 L7.92888833,30.9254409 L11.4977581,21.996346 L12.0778764,21.8654575 L4.71667144,11.0105275 Z" id="Path"></path>
                </g>
                <g id="Group-57" transform="translate(73.625000, 9.511111)" fill-opacity="0.126881419">
                    <rect id="Rectangle" x="0" y="0" width="168.625" height="11.8888889" rx="5.9375"></rect>
                    <rect id="Rectangle-Copy-15" x="0" y="26.1555556" width="125.875" height="11.8888889" rx="5.9375"></rect>
                </g>
            </g>
        </g>
    </g>
</svg>