<?xml version="1.0" encoding="UTF-8"?>
<svg width="160px" height="90px" viewBox="0 0 160 90" version="1.1" xmlns="http://www.w3.org/2000/svg" xmlns:xlink="http://www.w3.org/1999/xlink">
    <title>Video 160 x 90</title>
    <g id="Feeds-Details" stroke="none" stroke-width="1" fill="none" fill-rule="evenodd">
        <g id="Video-160-x-90">
            <rect id="Rectangle" fill="#F9F8FC" x="0" y="0" width="160" height="90"></rect>
            <g id="Group-60" transform="translate(29.000000, 33.000000)" fill="#0035B9">
                <g id="clapperboard" fill-rule="nonzero">
                    <path d="M0.973823457,14.0071889 L0.973823457,21.5156716 C0.973823457,22.8962469 2.09709247,24.0184835 3.47663538,24.0184835 L21.4969938,24.0184835 C22.8775692,24.0184835 23.9998058,22.8962 23.9998058,21.5156716 L23.9998058,14.0071889 L0.973823457,14.0071889 L0.973823457,14.0071889 Z" id="Path"></path>
                    <polygon id="Path" points="11.8521132 2.28893458 8.1058496 3.17793893 11.2443954 7.79617199 15.3019794 6.87314483"></polygon>
                    <polygon id="Path" points="7.06470462 3.42524958 3.0271119 4.38229955 6.13262035 8.95749962 10.1962112 8.03344004"></polygon>
                    <path d="M23.9838033,4.368315 L23.1318252,1.13666405 C22.9356191,0.350760554 22.1307098,-0.143766887 21.3367816,0.0374221859 L17.9729813,0.836324744 L21.1646027,5.54165621 L23.6103501,4.985043 C23.7434849,4.95500907 23.8576139,4.87189955 23.9277243,4.75579964 C23.9978348,4.63969972 24.0178261,4.5004643 23.9838033,4.368315 Z" id="Path"></path>
                    <polygon id="Path" points="16.9308509 1.08358846 12.9153143 2.03664956 16.3711873 6.63085548 20.1164185 5.77887733"></polygon>
                    <polygon id="Path" points="6.01849141 9.00255052 4.41669741 13.0060735 8.34415007 13.0060735 9.94594407 9.00255052"></polygon>
                    <polygon id="Path" points="11.0241622 9.00255052 9.42236818 13.0060735 13.3497739 13.0060735 14.9516148 9.00255052"></polygon>
                    <path d="M23.4992715,9.00255052 L21.0355037,9.00255052 L19.4337097,13.007059 L23.9998527,13.007059 L23.9998527,9.50308475 C23.9998058,9.2257871 23.7765692,9.00255052 23.4992715,9.00255052 Z" id="Path"></path>
                    <polygon id="Path" points="16.029833 9.00255052 14.427992 13.0060735 18.3544592 13.0060735 19.9572387 9.00255052"></polygon>
                    <path d="M1.98596692,4.63059569 L1.17002949,4.82379833 C0.772596121,4.91390013 0.436216096,5.15515706 0.222975187,5.50157968 C0.00973427903,5.84898779 -0.0533369756,6.25744925 0.0457749959,6.65286472 L0.973823457,10.3209932 L0.973823457,13.0060266 L3.3384793,13.0060266 L4.84116132,9.25079973 L5.08542165,9.19575317 L1.98596692,4.63059569 Z" id="Path"></path>
                </g>
                <g id="Group-57" transform="translate(31.000000, 4.000000)" fill-opacity="0.126881419">
                    <rect id="Rectangle" x="0" y="0" width="71" height="5" rx="2.5"></rect>
                    <rect id="Rectangle-Copy-15" x="0" y="11" width="53" height="5" rx="2.5"></rect>
                </g>
            </g>
        </g>
    </g>
</svg>