<svg xmlns="http://www.w3.org/2000/svg" width="80" height="80" viewBox="0 0 80 80">
    <g fill="none">
        <path fill="#AAA" d="M36.201 2.579c0-.762-.337-1.485-.921-1.975-.584-.49-1.356-.698-2.106-.565-6.332 1.126-12.15 3.732-17.089 7.447-.596.448-.969 1.134-1.02 1.88-.053.744.222 1.474.75 2.002l13.299 13.3c.813.813 2.068.99 3.073.43.743-.412 1.52-.77 2.328-1.068 1.014-.373 1.686-1.338 1.686-2.418V2.579z"/>
        <path fill="#E30E13" d="M44.337 21.612c0 1.08.674 2.045 1.688 2.418 4.58 1.684 8.215 5.32 9.9 9.9.372 1.014 1.338 1.687 2.418 1.687h19.035c.763 0 1.486-.338 1.975-.923.49-.585.695-1.356.561-2.107C76.971 16.037 63.918 2.983 47.367.04c-.75-.134-1.52.072-2.105.561-.585.49-.925 1.213-.925 1.975v19.036z"/>
        <path fill="#666" d="M58.343 43.753c-1.08 0-2.046.674-2.419 1.688-2.344 6.374-8.467 10.921-15.655 10.921-9.21 0-16.677-7.467-16.677-16.677 0-2.057.374-4.025 1.055-5.844.354-.946.123-2.012-.592-2.727L10.4 17.458c-.55-.55-1.32-.822-2.094-.74-.775.082-1.472.51-1.894 1.163C2.355 24.165 0 31.65 0 39.685c0 22.24 18.03 40.27 40.27 40.27 19.817 0 36.291-14.317 39.644-33.172.134-.75-.072-1.52-.561-2.105-.49-.585-1.213-.925-1.975-.925H58.343z"/>
    </g>
</svg>
